<?xml version="1.0" encoding="UTF-8" standalone="no"?>
<svg
   xmlns:dc="http://purl.org/dc/elements/1.1/"
   xmlns:cc="http://creativecommons.org/ns#"
   xmlns:rdf="http://www.w3.org/1999/02/22-rdf-syntax-ns#"
   xmlns:svg="http://www.w3.org/2000/svg"
   xmlns="http://www.w3.org/2000/svg"
   xmlns:sodipodi="http://sodipodi.sourceforge.net/DTD/sodipodi-0.dtd"
   xmlns:inkscape="http://www.inkscape.org/namespaces/inkscape"
   version="1.1"
   x="0px"
   y="0px"
   viewBox="0 0 40 40"
   style="enable-background:new 0 0 40 40;"
   xml:space="preserve"
   id="svg103"
   sodipodi:docname="nocumplido.svg"
   inkscape:version="1.0.2 (1.0.2+r75+1)"><metadata
   id="metadata109"><rdf:RDF><cc:Work
       rdf:about=""><dc:format>image/svg+xml</dc:format><dc:type
         rdf:resource="http://purl.org/dc/dcmitype/StillImage" /></cc:Work></rdf:RDF></metadata><defs
   id="defs107" /><sodipodi:namedview
   pagecolor="#ffffff"
   bordercolor="#666666"
   borderopacity="1"
   objecttolerance="10"
   gridtolerance="10"
   guidetolerance="10"
   inkscape:pageopacity="0"
   inkscape:pageshadow="2"
   inkscape:window-width="1920"
   inkscape:window-height="984"
   id="namedview105"
   showgrid="false"
   inkscape:zoom="20.75"
   inkscape:cx="20"
   inkscape:cy="20"
   inkscape:window-x="0"
   inkscape:window-y="24"
   inkscape:window-maximized="1"
   inkscape:current-layer="svg103"
   inkscape:document-rotation="0" />
<style
   type="text/css"
   id="style2">
	.st0{fill:#C9556E;}
	.st1{display:none;}
	.st2{display:inline;}
	.st3{fill:#F9BC86;}
	.st4{fill:#7EA48B;}
</style>
<g
   id="g940"><circle
     style="opacity:0.999;fill:#ffffff;stroke-width:4.112;stroke-linecap:round;paint-order:markers fill stroke"
     id="path934"
     cx="19.975315"
     cy="20.001362"
     r="13.436149" /><rect
     style="opacity:0.999;fill:#ffffff;stroke-width:4.112;stroke-linecap:round;paint-order:markers fill stroke"
     id="rect936"
     width="35.288948"
     height="10.125168"
     x="2.4250414"
     y="15.09432" /></g><g
   id="Incumplido"
   style="fill:#d40000">
	<g
   id="g30"
   style="fill:#d40000">
		<g
   id="g6"
   style="fill:#d40000">
			<path
   class="st0"
   d="M32.58,14.49C30.46,9.64,25.63,6.26,20,6.26S9.54,9.64,7.42,14.49H1.84v11.03h5.58     c2.12,4.84,6.96,8.23,12.58,8.23s10.46-3.38,12.58-8.23h5.58V14.49H32.58z M20,7.95c4.66,0,8.71,2.66,10.71,6.54h-1.47     c-1.88-3.14-5.31-5.25-9.24-5.25s-7.36,2.11-9.24,5.25H9.29C11.29,10.61,15.34,7.95,20,7.95z M22.81,14.49     c-0.75-0.86-2.22-1.7-5.1-1.48v1.48h-4.85c1.65-2.13,4.23-3.51,7.14-3.51s5.49,1.37,7.14,3.51H22.81z M20,10.13     c-3.4,0-6.4,1.73-8.18,4.35h-0.73c1.85-2.98,5.15-4.97,8.91-4.97s7.06,1.99,8.91,4.97h-0.73C26.4,11.86,23.4,10.13,20,10.13z      M20,32.05c-4.66,0-8.71-2.66-10.71-6.54h1.47c1.88,3.14,5.31,5.25,9.24,5.25s7.36-2.11,9.24-5.25h1.47     C28.71,29.39,24.66,32.05,20,32.05z M17.19,25.51c0.75,0.86,2.22,1.7,5.1,1.48v-1.48h4.85c-1.65,2.13-4.23,3.51-7.14,3.51     s-5.49-1.37-7.14-3.51H17.19z M20,29.87c3.4,0,6.4-1.73,8.18-4.35h0.73c-1.85,2.98-5.15,4.97-8.91,4.97s-7.06-1.99-8.91-4.97     h0.73C13.6,28.14,16.6,29.87,20,29.87z M37.04,24.39H2.96v-8.78h34.08V24.39z"
   id="path4"
   style="fill:#d40000" />
		</g>
		<g
   id="g28"
   style="fill:#d40000">
			<path
   class="st0"
   d="M3.97,17.74H3.7V17.1h1.39v0.65H4.82v3.2h0.26v0.65H3.7v-0.65h0.26V17.74z"
   id="path8"
   style="fill:#d40000" />
			<path
   class="st0"
   d="M7.02,21.6H5.87v-2.16c0-0.04-0.02-0.09-0.05-0.13s-0.1-0.06-0.21-0.06V18.6c0.1-0.03,0.2-0.05,0.32-0.07     c0.12-0.01,0.23,0,0.34,0.02s0.2,0.08,0.27,0.16c0.07,0.08,0.11,0.19,0.11,0.33c0.05-0.09,0.12-0.17,0.21-0.24     c0.08-0.06,0.18-0.12,0.3-0.17c0.12-0.05,0.27-0.07,0.46-0.07c0.2,0.01,0.39,0.06,0.55,0.14c0.1,0.04,0.17,0.08,0.22,0.13     c0.05,0.05,0.1,0.11,0.15,0.19c0.05,0.07,0.09,0.16,0.12,0.26c0.03,0.1,0.04,0.22,0.04,0.35v1.31H9v0.65H7.86v-1.83     c0-0.12-0.03-0.22-0.08-0.3c-0.06-0.08-0.13-0.13-0.21-0.17s-0.17-0.06-0.27-0.05c-0.1,0-0.19,0.03-0.27,0.07     s-0.15,0.1-0.21,0.18c-0.06,0.08-0.08,0.17-0.08,0.28v1.18h0.28L7.02,21.6z"
   id="path10"
   style="fill:#d40000" />
			<path
   class="st0"
   d="M11.84,20.69c0.06,0.09,0.11,0.19,0.16,0.28c0.05,0.09,0.1,0.19,0.16,0.28c-0.19,0.14-0.4,0.24-0.63,0.31     c-0.23,0.07-0.46,0.1-0.69,0.1c-0.24,0-0.46-0.04-0.63-0.13c-0.18-0.09-0.32-0.2-0.44-0.35c-0.11-0.14-0.19-0.31-0.25-0.49     c-0.05-0.18-0.08-0.37-0.08-0.56c0-0.24,0.04-0.46,0.13-0.66c0.09-0.19,0.2-0.36,0.35-0.5c0.14-0.14,0.31-0.24,0.5-0.31     c0.19-0.07,0.39-0.11,0.6-0.11c0.2,0,0.39,0.03,0.58,0.08c0.19,0.05,0.38,0.14,0.56,0.27v0.64h-0.64v-0.21     c-0.22-0.07-0.42-0.1-0.6-0.07c-0.11,0.01-0.19,0.03-0.25,0.07c-0.06,0.04-0.12,0.09-0.17,0.16c-0.05,0.07-0.1,0.16-0.13,0.27     c-0.03,0.11-0.05,0.25-0.05,0.41c0,0.02,0,0.06,0,0.13s0.02,0.15,0.04,0.23c0.02,0.08,0.06,0.16,0.12,0.24     c0.06,0.08,0.14,0.13,0.25,0.17c0.11,0.03,0.26,0.04,0.44,0.01C11.35,20.9,11.58,20.82,11.84,20.69z"
   id="path12"
   style="fill:#d40000" />
			<path
   class="st0"
   d="M15.71,18.6v2.16c0,0.04,0.02,0.09,0.05,0.13c0.03,0.04,0.1,0.06,0.21,0.06v0.65     c-0.1,0.03-0.2,0.05-0.32,0.07c-0.12,0.01-0.23,0-0.34-0.02c-0.11-0.03-0.2-0.08-0.27-0.16c-0.07-0.08-0.11-0.19-0.11-0.33     c-0.05,0.1-0.12,0.18-0.21,0.25c-0.08,0.07-0.18,0.13-0.3,0.18c-0.12,0.05-0.27,0.08-0.46,0.08c-0.2-0.02-0.38-0.07-0.54-0.15     c-0.1-0.04-0.18-0.09-0.23-0.14c-0.05-0.05-0.11-0.12-0.15-0.19s-0.09-0.17-0.12-0.27s-0.04-0.22-0.04-0.35v-1.31h-0.28V18.6     h1.14v1.83c0,0.12,0.03,0.22,0.08,0.3c0.06,0.08,0.13,0.14,0.21,0.17c0.08,0.04,0.17,0.06,0.27,0.05c0.1,0,0.19-0.03,0.27-0.07     s0.15-0.1,0.21-0.18c0.06-0.08,0.08-0.17,0.08-0.28v-1.18h-0.28V18.6H15.71z"
   id="path14"
   style="fill:#d40000" />
			<path
   class="st0"
   d="M17.53,19.02c0.05-0.08,0.12-0.16,0.21-0.23c0.08-0.06,0.18-0.12,0.3-0.16c0.12-0.04,0.27-0.07,0.46-0.07     c0.12,0,0.25,0.02,0.37,0.06c0.11,0.03,0.21,0.07,0.32,0.14c0.1,0.06,0.19,0.16,0.27,0.28c0.08-0.13,0.17-0.22,0.29-0.29     c0.12-0.07,0.23-0.11,0.34-0.14c0.13-0.03,0.26-0.05,0.4-0.05c0.2,0.01,0.39,0.05,0.55,0.13c0.1,0.04,0.17,0.08,0.23,0.13     s0.11,0.11,0.16,0.18c0.05,0.07,0.09,0.16,0.12,0.26c0.03,0.1,0.04,0.22,0.04,0.35v1.33h0.28v0.65h-1.14v-1.84     c0-0.12-0.03-0.22-0.08-0.29c-0.06-0.08-0.13-0.13-0.21-0.17c-0.08-0.04-0.17-0.05-0.27-0.05c-0.1,0-0.19,0.03-0.27,0.06     c-0.08,0.04-0.15,0.09-0.21,0.16c-0.06,0.07-0.08,0.16-0.08,0.25v1.22h0.29v0.65h-1.15v-1.84c0-0.12-0.03-0.22-0.08-0.3     c-0.06-0.08-0.13-0.13-0.21-0.17c-0.09-0.03-0.18-0.05-0.28-0.04c-0.1,0-0.19,0.03-0.28,0.07s-0.16,0.1-0.21,0.17     c-0.06,0.07-0.08,0.16-0.08,0.27v1.19h0.29v0.65h-1.15v-2.17c0-0.04-0.02-0.08-0.05-0.12s-0.1-0.06-0.21-0.06V18.6     c0.07-0.02,0.17-0.04,0.29-0.06s0.23-0.02,0.35,0s0.22,0.06,0.3,0.13C17.49,18.74,17.53,18.86,17.53,19.02z"
   id="path16"
   style="fill:#d40000" />
			<path
   class="st0"
   d="M24.29,18.55c0.2,0.02,0.39,0.06,0.55,0.14c0.1,0.04,0.17,0.09,0.23,0.14c0.06,0.05,0.11,0.11,0.15,0.19     c0.05,0.07,0.08,0.16,0.12,0.26s0.05,0.22,0.05,0.35v0.95c0,0.13-0.02,0.25-0.05,0.35c-0.03,0.1-0.07,0.19-0.12,0.26     c-0.05,0.08-0.11,0.14-0.17,0.19c-0.07,0.05-0.13,0.09-0.2,0.12c-0.16,0.08-0.34,0.13-0.54,0.14c-0.12,0-0.23-0.01-0.33-0.04     c-0.1-0.03-0.18-0.06-0.26-0.1c-0.08-0.04-0.14-0.08-0.19-0.12c-0.05-0.04-0.09-0.08-0.12-0.11v1.81H22.3v-0.65h0.25v-2.98     c0-0.04-0.01-0.09-0.04-0.14c-0.03-0.05-0.1-0.08-0.21-0.08V18.6c0.08-0.03,0.18-0.05,0.3-0.06s0.23-0.01,0.35,0.01     c0.11,0.02,0.21,0.07,0.28,0.14c0.08,0.07,0.12,0.19,0.12,0.33c0-0.02,0.02-0.06,0.06-0.11c0.04-0.05,0.1-0.1,0.17-0.16     c0.08-0.05,0.18-0.1,0.3-0.14S24.13,18.55,24.29,18.55z M23.41,20.42c0,0.16,0.06,0.28,0.17,0.37c0.11,0.09,0.24,0.14,0.38,0.15     c0.14,0.01,0.27-0.03,0.38-0.11s0.18-0.22,0.2-0.41v-0.65c0-0.12-0.03-0.22-0.08-0.3c-0.06-0.08-0.12-0.13-0.21-0.17     c-0.08-0.04-0.17-0.05-0.27-0.04c-0.1,0.01-0.19,0.03-0.27,0.07s-0.15,0.1-0.21,0.17c-0.06,0.07-0.08,0.17-0.08,0.27V20.42z"
   id="path18"
   style="fill:#d40000" />
			<path
   class="st0"
   d="M27.32,21.6h-1.14v-3.66c0-0.05-0.02-0.08-0.04-0.11c-0.03-0.03-0.06-0.04-0.09-0.06     c-0.04-0.02-0.09-0.02-0.14-0.02V17.1c0.09-0.04,0.2-0.06,0.33-0.07c0.13-0.01,0.25,0,0.38,0.02c0.12,0.03,0.22,0.08,0.31,0.15     c0.08,0.07,0.13,0.18,0.13,0.31v3.44h0.28V21.6z"
   id="path20"
   style="fill:#d40000" />
			<path
   class="st0"
   d="M28.11,19.24h-0.28V18.6h1.14v2.17c0,0.05,0.02,0.09,0.05,0.13c0.03,0.04,0.11,0.06,0.23,0.06v0.65     c-0.09,0.04-0.2,0.06-0.33,0.07c-0.13,0.01-0.25,0-0.38-0.02c-0.12-0.03-0.22-0.08-0.31-0.15s-0.13-0.18-0.13-0.31V19.24z      M28.97,17.52v0.65h-0.65v-0.65H28.97z"
   id="path22"
   style="fill:#d40000" />
			<path
   class="st0"
   d="M32.84,21.6c-0.08,0.04-0.17,0.06-0.29,0.07c-0.12,0.01-0.23,0-0.34-0.03s-0.21-0.08-0.29-0.15     s-0.12-0.16-0.12-0.28c0,0.02-0.02,0.05-0.06,0.1s-0.1,0.1-0.17,0.15c-0.08,0.05-0.18,0.1-0.3,0.14s-0.26,0.06-0.43,0.06     c-0.2-0.01-0.38-0.06-0.54-0.13c-0.1-0.04-0.18-0.08-0.23-0.13c-0.05-0.05-0.11-0.11-0.15-0.18c-0.05-0.07-0.09-0.16-0.12-0.26     c-0.03-0.1-0.04-0.22-0.04-0.35v-0.98c0-0.13,0.02-0.25,0.04-0.35c0.03-0.1,0.07-0.19,0.12-0.26c0.05-0.08,0.11-0.14,0.17-0.19     c0.06-0.05,0.13-0.09,0.2-0.13c0.16-0.08,0.33-0.12,0.53-0.13c0.13,0,0.24,0.01,0.34,0.04c0.1,0.03,0.18,0.06,0.26,0.09     c0.07,0.04,0.14,0.07,0.19,0.12s0.09,0.08,0.12,0.12v-1.18h-0.28V17.1h1.14v3.67c0,0.04,0.02,0.08,0.05,0.12     c0.03,0.04,0.1,0.06,0.2,0.06V21.6z M31.73,19.77c0-0.11-0.03-0.2-0.08-0.28c-0.06-0.08-0.12-0.14-0.21-0.18     s-0.17-0.06-0.27-0.07c-0.1,0-0.18,0.01-0.27,0.04c-0.08,0.03-0.15,0.09-0.21,0.17c-0.06,0.08-0.08,0.18-0.08,0.3v0.68     c0,0.12,0.03,0.22,0.08,0.29c0.06,0.08,0.12,0.13,0.21,0.17c0.08,0.04,0.17,0.05,0.27,0.05c0.1,0,0.19-0.03,0.27-0.07     s0.15-0.1,0.21-0.17c0.06-0.07,0.08-0.16,0.08-0.27V19.77z"
   id="path24"
   style="fill:#d40000" />
			<path
   class="st0"
   d="M34.79,18.55c0.21,0,0.41,0.04,0.6,0.11c0.19,0.08,0.36,0.18,0.5,0.32c0.14,0.14,0.26,0.3,0.34,0.49     c0.08,0.19,0.12,0.4,0.12,0.63c0,0.33-0.08,0.61-0.23,0.84c-0.16,0.23-0.35,0.4-0.58,0.52c-0.23,0.12-0.48,0.18-0.75,0.19     c-0.27,0.01-0.52-0.05-0.75-0.16c-0.23-0.11-0.42-0.28-0.58-0.51c-0.15-0.23-0.23-0.52-0.23-0.88c0-0.2,0.04-0.4,0.11-0.59     c0.07-0.19,0.18-0.35,0.31-0.5c0.14-0.14,0.3-0.26,0.49-0.34C34.34,18.6,34.55,18.55,34.79,18.55z M34.1,20.11     c0,0.26,0.07,0.47,0.2,0.62c0.13,0.15,0.3,0.23,0.51,0.23c0.2,0,0.37-0.08,0.5-0.23c0.13-0.15,0.2-0.36,0.2-0.63     c0-0.14-0.02-0.26-0.06-0.37s-0.09-0.19-0.16-0.26c-0.07-0.07-0.14-0.13-0.23-0.16c-0.09-0.04-0.17-0.05-0.27-0.05     c-0.09,0-0.18,0.02-0.26,0.05c-0.08,0.04-0.16,0.09-0.22,0.16c-0.06,0.07-0.12,0.16-0.15,0.26S34.1,19.97,34.1,20.11z"
   id="path26"
   style="fill:#d40000" />
		</g>
	</g>
</g>
<g
   id="parcialmente"
   class="st1">
	<g
   class="st2"
   id="g77">
		<path
   class="st3"
   d="M32.58,14.49C30.46,9.64,25.63,6.26,20,6.26S9.54,9.64,7.42,14.49H1.84v11.03h5.58    c2.12,4.84,6.96,8.23,12.58,8.23s10.46-3.38,12.58-8.23h5.58V14.49H32.58z M20,7.95c4.66,0,8.71,2.66,10.71,6.54h-1.47    c-1.88-3.14-5.31-5.25-9.24-5.25s-7.36,2.11-9.24,5.25H9.29C11.29,10.61,15.34,7.95,20,7.95z M22.81,14.49    c-0.75-0.86-2.22-1.7-5.1-1.48v1.48h-4.85c1.65-2.13,4.23-3.51,7.14-3.51s5.49,1.37,7.14,3.51H22.81z M20,10.13    c-3.4,0-6.4,1.73-8.18,4.35h-0.73c1.85-2.98,5.15-4.97,8.91-4.97s7.06,1.99,8.91,4.97h-0.73C26.4,11.86,23.4,10.13,20,10.13z     M20,32.05c-4.66,0-8.71-2.66-10.71-6.54h1.47c1.88,3.14,5.31,5.25,9.24,5.25s7.36-2.11,9.24-5.25h1.47    C28.71,29.39,24.66,32.05,20,32.05z M17.19,25.51c0.75,0.86,2.22,1.7,5.1,1.48v-1.48h4.85c-1.65,2.13-4.23,3.51-7.14,3.51    s-5.49-1.37-7.14-3.51H17.19z M20,29.87c3.4,0,6.4-1.73,8.18-4.35h0.73c-1.85,2.98-5.15,4.97-8.91,4.97s-7.06-1.99-8.91-4.97h0.73    C13.6,28.14,16.6,29.87,20,29.87z M37.04,24.39H2.96v-8.78h34.08V24.39z"
   id="path33" />
		<g
   id="g75">
			<path
   class="st3"
   d="M6.54,18.8v-2.17H6.36v-0.44h1.22c0.24,0,0.43,0.05,0.59,0.15c0.16,0.1,0.27,0.22,0.35,0.37     s0.12,0.31,0.12,0.48s-0.04,0.33-0.12,0.48c-0.08,0.15-0.2,0.27-0.35,0.37C8,18.13,7.8,18.18,7.57,18.18H7.12v0.61H7.3v0.44H6.36     V18.8H6.54z M7.48,16.62H7.12v1.12h0.36c0.11-0.01,0.2-0.03,0.29-0.07c0.05-0.02,0.09-0.05,0.12-0.07     c0.03-0.03,0.06-0.06,0.08-0.1c0.02-0.04,0.04-0.08,0.06-0.14c0.02-0.05,0.02-0.11,0.02-0.19c0-0.14-0.03-0.25-0.09-0.33     c-0.06-0.08-0.12-0.13-0.19-0.17C7.68,16.65,7.59,16.63,7.48,16.62z"
   id="path35" />
			<path
   class="st3"
   d="M9.64,19.28c-0.14-0.01-0.26-0.04-0.37-0.1c-0.07-0.03-0.12-0.06-0.16-0.09c-0.04-0.03-0.07-0.08-0.1-0.13     s-0.06-0.11-0.08-0.18c-0.02-0.07-0.03-0.15-0.03-0.24v-0.65c0-0.09,0.01-0.17,0.03-0.24s0.05-0.13,0.08-0.18     c0.03-0.05,0.07-0.09,0.12-0.13c0.04-0.03,0.09-0.06,0.13-0.09c0.11-0.05,0.23-0.08,0.37-0.09c0.08,0,0.16,0.01,0.23,0.03     c0.07,0.02,0.13,0.04,0.19,0.06c0.05,0.03,0.1,0.05,0.14,0.08c0.04,0.03,0.07,0.05,0.09,0.08V17.2h0.71v0.44h-0.17v1.03     c0,0.03,0.01,0.06,0.03,0.09c0.02,0.03,0.07,0.05,0.14,0.05v0.43c-0.05,0.03-0.12,0.04-0.2,0.05c-0.08,0.01-0.16,0-0.23-0.02     c-0.07-0.02-0.14-0.05-0.19-0.1c-0.05-0.05-0.08-0.12-0.08-0.21c0,0.01-0.01,0.04-0.04,0.07c-0.03,0.04-0.07,0.07-0.12,0.11     s-0.12,0.07-0.2,0.1C9.84,19.26,9.75,19.28,9.64,19.28z M10.28,18.01c0-0.07-0.02-0.13-0.06-0.19c-0.04-0.05-0.09-0.09-0.14-0.12     c-0.06-0.03-0.12-0.04-0.19-0.05c-0.07,0-0.13,0.01-0.19,0.03c-0.06,0.02-0.11,0.06-0.15,0.12s-0.07,0.12-0.07,0.21v0.45     c0,0.08,0.02,0.15,0.06,0.2c0.04,0.05,0.09,0.09,0.15,0.12s0.12,0.03,0.19,0.03s0.13-0.02,0.19-0.05     c0.06-0.03,0.11-0.07,0.15-0.12c0.04-0.05,0.06-0.11,0.06-0.18V18.01z"
   id="path37" />
			<path
   class="st3"
   d="M11.4,17.2c0.06-0.02,0.13-0.04,0.22-0.04c0.08-0.01,0.16,0,0.23,0.02s0.13,0.05,0.19,0.1     c0.05,0.05,0.08,0.12,0.08,0.21c0.04-0.06,0.08-0.11,0.14-0.16c0.05-0.04,0.12-0.08,0.2-0.11s0.18-0.05,0.31-0.05     c0.02,0,0.04,0,0.06,0c0.02,0,0.04,0.01,0.06,0.01c0.02,0,0.05,0.01,0.07,0.01v0.44c-0.15-0.01-0.28,0.01-0.4,0.05     c-0.07,0.02-0.13,0.04-0.17,0.07c-0.04,0.03-0.08,0.06-0.11,0.11c-0.04,0.04-0.06,0.1-0.08,0.16s-0.03,0.14-0.03,0.22v0.55h0.2     v0.44h-0.78v-1.47c0-0.03-0.01-0.06-0.03-0.08c-0.02-0.03-0.07-0.04-0.14-0.04V17.2z"
   id="path39" />
			<path
   class="st3"
   d="M14.83,18.62c0.04,0.06,0.07,0.13,0.11,0.19c0.03,0.06,0.07,0.13,0.11,0.19c-0.13,0.09-0.27,0.16-0.43,0.21     c-0.16,0.04-0.31,0.07-0.47,0.07c-0.17,0-0.31-0.03-0.43-0.09c-0.12-0.06-0.22-0.14-0.29-0.24c-0.08-0.1-0.13-0.21-0.17-0.33     c-0.04-0.12-0.05-0.25-0.05-0.38c0-0.17,0.03-0.31,0.09-0.45c0.06-0.13,0.14-0.24,0.23-0.34c0.1-0.09,0.21-0.16,0.34-0.21     c0.13-0.05,0.26-0.07,0.4-0.07c0.13,0,0.27,0.02,0.4,0.06c0.13,0.04,0.26,0.1,0.38,0.18v0.44h-0.44V17.7     c-0.15-0.05-0.29-0.06-0.41-0.05c-0.07,0.01-0.13,0.02-0.17,0.04s-0.08,0.06-0.12,0.11c-0.04,0.05-0.06,0.11-0.09,0.18     c-0.02,0.07-0.03,0.17-0.03,0.27c0,0.01,0,0.04,0,0.09c0,0.05,0.01,0.1,0.03,0.15s0.04,0.11,0.08,0.16     c0.04,0.05,0.1,0.09,0.17,0.11c0.08,0.02,0.18,0.02,0.3,0S14.65,18.71,14.83,18.62z"
   id="path41" />
			<path
   class="st3"
   d="M15.57,17.64h-0.19V17.2h0.77v1.47c0,0.03,0.01,0.06,0.04,0.09s0.07,0.04,0.16,0.04v0.44     c-0.06,0.02-0.13,0.04-0.22,0.05s-0.17,0-0.25-0.02c-0.08-0.02-0.15-0.05-0.21-0.1s-0.09-0.12-0.09-0.21V17.64z M16.15,16.47     v0.44h-0.44v-0.44H16.15z"
   id="path43" />
			<path
   class="st3"
   d="M17.43,19.28c-0.14-0.01-0.26-0.04-0.37-0.1c-0.06-0.03-0.12-0.06-0.15-0.09c-0.04-0.03-0.07-0.08-0.1-0.13     s-0.06-0.11-0.08-0.18c-0.02-0.07-0.03-0.15-0.03-0.24v-0.65c0-0.09,0.01-0.17,0.03-0.24c0.02-0.07,0.05-0.13,0.08-0.18     c0.03-0.05,0.07-0.09,0.12-0.13c0.04-0.03,0.09-0.06,0.13-0.09c0.11-0.05,0.23-0.08,0.37-0.09c0.08,0,0.16,0.01,0.23,0.03     c0.07,0.02,0.13,0.04,0.19,0.06c0.05,0.03,0.1,0.05,0.14,0.08c0.04,0.03,0.07,0.05,0.09,0.08V17.2h0.71v0.44h-0.17v1.03     c0,0.03,0.01,0.06,0.03,0.09s0.07,0.05,0.14,0.05v0.43c-0.05,0.03-0.12,0.04-0.2,0.05c-0.08,0.01-0.16,0-0.23-0.02     c-0.08-0.02-0.14-0.05-0.19-0.1c-0.05-0.05-0.08-0.12-0.08-0.21c0,0.01-0.01,0.04-0.04,0.07c-0.03,0.04-0.07,0.07-0.12,0.11     s-0.12,0.07-0.2,0.1S17.54,19.28,17.43,19.28z M18.07,18.01c0-0.07-0.02-0.13-0.06-0.19c-0.04-0.05-0.09-0.09-0.14-0.12     c-0.06-0.03-0.12-0.04-0.19-0.05c-0.07,0-0.13,0.01-0.19,0.03s-0.11,0.06-0.15,0.12s-0.07,0.12-0.07,0.21v0.45     c0,0.08,0.02,0.15,0.06,0.2s0.09,0.09,0.15,0.12s0.12,0.03,0.19,0.03s0.13-0.02,0.19-0.05c0.06-0.03,0.11-0.07,0.15-0.12     c0.04-0.05,0.06-0.11,0.06-0.18V18.01z"
   id="path45" />
			<path
   class="st3"
   d="M20.07,19.24H19.3v-2.48c0-0.03-0.01-0.06-0.03-0.08s-0.04-0.03-0.06-0.04c-0.03-0.01-0.06-0.02-0.1-0.02     v-0.44c0.06-0.02,0.14-0.04,0.23-0.05c0.09-0.01,0.17,0,0.25,0.02c0.08,0.02,0.15,0.05,0.21,0.1c0.06,0.05,0.08,0.12,0.08,0.21     v2.33h0.19V19.24z"
   id="path47" />
			<path
   class="st3"
   d="M21.13,17.49c0.04-0.06,0.08-0.11,0.14-0.15c0.05-0.04,0.12-0.08,0.2-0.11c0.08-0.03,0.18-0.04,0.31-0.04     c0.08,0,0.17,0.02,0.25,0.04c0.07,0.02,0.14,0.05,0.21,0.09c0.07,0.04,0.13,0.11,0.18,0.19c0.05-0.09,0.12-0.15,0.2-0.2     c0.08-0.04,0.16-0.08,0.23-0.1c0.09-0.02,0.18-0.03,0.27-0.03c0.14,0.01,0.26,0.04,0.37,0.09c0.06,0.03,0.12,0.06,0.15,0.09     c0.04,0.03,0.07,0.07,0.11,0.12c0.03,0.05,0.06,0.11,0.08,0.18c0.02,0.07,0.03,0.15,0.03,0.24v0.9h0.19v0.44H23.3v-1.25     c0-0.08-0.02-0.15-0.06-0.2c-0.04-0.05-0.09-0.09-0.14-0.11s-0.12-0.04-0.19-0.03s-0.13,0.02-0.19,0.04     c-0.06,0.03-0.1,0.06-0.14,0.11c-0.04,0.05-0.06,0.11-0.06,0.17v0.83h0.19v0.44h-0.78v-1.25c0-0.08-0.02-0.15-0.06-0.2     c-0.04-0.05-0.09-0.09-0.14-0.11c-0.06-0.02-0.12-0.03-0.19-0.03c-0.07,0-0.13,0.02-0.19,0.05c-0.06,0.03-0.11,0.07-0.14,0.12     c-0.04,0.05-0.06,0.11-0.06,0.18v0.81h0.2v0.44h-0.78v-1.47c0-0.03-0.01-0.06-0.03-0.08s-0.07-0.04-0.14-0.04V17.2     c0.05-0.01,0.11-0.03,0.19-0.04c0.08-0.01,0.16-0.01,0.24,0c0.08,0.01,0.15,0.04,0.2,0.09C21.11,17.3,21.13,17.38,21.13,17.49z"
   id="path49" />
			<path
   class="st3"
   d="M25.34,17.17c0.15,0,0.27,0.02,0.38,0.05s0.19,0.08,0.26,0.14c0.07,0.06,0.13,0.12,0.17,0.2     c0.04,0.07,0.08,0.15,0.1,0.23c0.05,0.18,0.06,0.39,0.03,0.62h-1.36c0,0.11,0.02,0.19,0.07,0.25c0.05,0.06,0.1,0.1,0.16,0.13     c0.07,0.03,0.14,0.05,0.22,0.06c0.08,0,0.15,0,0.21-0.01s0.11-0.02,0.16-0.03s0.09-0.03,0.14-0.06c0.04-0.02,0.09-0.05,0.14-0.08     l0.2,0.34c-0.13,0.09-0.27,0.15-0.42,0.2c-0.15,0.04-0.31,0.06-0.48,0.06c-0.16,0-0.3-0.03-0.42-0.09     c-0.12-0.06-0.23-0.14-0.31-0.23s-0.15-0.21-0.19-0.33c-0.04-0.12-0.07-0.25-0.07-0.38c0-0.13,0.02-0.26,0.07-0.39     s0.11-0.24,0.2-0.34c0.09-0.1,0.19-0.18,0.32-0.25S25.18,17.17,25.34,17.17z M25.76,18.07c0-0.13-0.04-0.23-0.11-0.31     c-0.07-0.08-0.17-0.12-0.27-0.12c-0.15,0-0.26,0.04-0.34,0.11c-0.08,0.08-0.12,0.18-0.12,0.31H25.76z"
   id="path51" />
			<path
   class="st3"
   d="M27.58,19.24H26.8v-1.46c0-0.03-0.01-0.06-0.03-0.09s-0.07-0.04-0.14-0.04V17.2     c0.07-0.02,0.14-0.04,0.22-0.04s0.16,0,0.23,0.02c0.07,0.02,0.14,0.05,0.19,0.11c0.05,0.05,0.08,0.13,0.08,0.22     c0.04-0.06,0.08-0.11,0.14-0.16c0.05-0.04,0.12-0.08,0.2-0.11c0.08-0.03,0.18-0.05,0.31-0.05c0.14,0.01,0.26,0.04,0.37,0.09     c0.07,0.03,0.12,0.06,0.15,0.09c0.04,0.03,0.07,0.08,0.1,0.13c0.03,0.05,0.06,0.11,0.08,0.18c0.02,0.07,0.03,0.15,0.03,0.24v0.89     h0.19v0.44h-0.77V18c0-0.08-0.02-0.15-0.06-0.2S28,17.7,27.95,17.68c-0.06-0.03-0.12-0.04-0.18-0.03c-0.07,0-0.13,0.02-0.18,0.05     c-0.06,0.03-0.1,0.07-0.14,0.12c-0.04,0.05-0.06,0.11-0.06,0.19v0.8h0.19L27.58,19.24z"
   id="path53" />
			<path
   class="st3"
   d="M29.41,16.92h-0.2v-0.44h0.78v0.72h0.39v0.44h-0.39v1.03c0,0.04,0.01,0.06,0.03,0.08     c0.02,0.02,0.04,0.03,0.07,0.04c0.03,0.01,0.06,0.01,0.1,0.01v0.44c-0.06,0.02-0.13,0.04-0.22,0.05c-0.09,0.01-0.18,0-0.26-0.02     c-0.08-0.02-0.15-0.05-0.21-0.1c-0.06-0.05-0.09-0.12-0.09-0.21V16.92z"
   id="path55" />
			<path
   class="st3"
   d="M31.7,17.17c0.15,0,0.27,0.02,0.38,0.05s0.19,0.08,0.26,0.14c0.07,0.06,0.13,0.12,0.17,0.2     c0.04,0.07,0.08,0.15,0.1,0.23c0.05,0.18,0.06,0.39,0.03,0.62h-1.36c0,0.11,0.02,0.19,0.07,0.25c0.05,0.06,0.1,0.1,0.16,0.13     c0.07,0.03,0.14,0.05,0.22,0.06c0.08,0,0.15,0,0.21-0.01s0.11-0.02,0.16-0.03s0.09-0.03,0.14-0.06c0.04-0.02,0.09-0.05,0.14-0.08     l0.2,0.34c-0.13,0.09-0.27,0.15-0.42,0.2c-0.15,0.04-0.31,0.06-0.48,0.06c-0.16,0-0.3-0.03-0.42-0.09     c-0.12-0.06-0.23-0.14-0.31-0.23s-0.15-0.21-0.19-0.33c-0.04-0.12-0.07-0.25-0.07-0.38c0-0.13,0.02-0.26,0.07-0.39     s0.11-0.24,0.2-0.34c0.09-0.1,0.19-0.18,0.32-0.25S31.54,17.17,31.7,17.17z M32.12,18.07c0-0.13-0.04-0.23-0.11-0.31     c-0.07-0.08-0.17-0.12-0.27-0.12c-0.15,0-0.26,0.04-0.34,0.11c-0.08,0.08-0.12,0.18-0.12,0.31H32.12z"
   id="path57" />
			<path
   class="st3"
   d="M12.52,22.31c0.04,0.06,0.07,0.12,0.11,0.19c0.03,0.06,0.07,0.13,0.11,0.19c-0.13,0.1-0.27,0.17-0.43,0.21     s-0.31,0.07-0.47,0.07c-0.17,0-0.31-0.03-0.43-0.09c-0.12-0.06-0.22-0.14-0.29-0.24s-0.13-0.21-0.17-0.33     c-0.04-0.12-0.05-0.25-0.05-0.38c0-0.17,0.03-0.31,0.09-0.45c0.06-0.13,0.14-0.24,0.23-0.34s0.21-0.16,0.34-0.21     s0.26-0.07,0.41-0.07c0.13,0,0.26,0.02,0.4,0.06s0.26,0.1,0.38,0.18v0.44H12.3v-0.14c-0.15-0.05-0.29-0.06-0.41-0.05     c-0.07,0.01-0.13,0.02-0.17,0.04s-0.08,0.06-0.12,0.11c-0.04,0.05-0.06,0.11-0.09,0.18c-0.02,0.07-0.04,0.17-0.04,0.27     c0,0.01,0,0.04,0,0.09c0,0.05,0.01,0.1,0.03,0.15c0.02,0.06,0.04,0.11,0.08,0.16c0.04,0.05,0.1,0.09,0.17,0.11     c0.08,0.02,0.18,0.02,0.3,0C12.18,22.45,12.34,22.4,12.52,22.31z"
   id="path59" />
			<path
   class="st3"
   d="M15.14,20.89v1.46c0,0.03,0.01,0.06,0.03,0.09s0.07,0.04,0.14,0.04v0.44c-0.07,0.02-0.14,0.04-0.22,0.04     c-0.08,0.01-0.16,0-0.23-0.02c-0.07-0.02-0.14-0.05-0.19-0.11s-0.08-0.13-0.08-0.22c-0.04,0.06-0.08,0.12-0.14,0.17     c-0.05,0.05-0.12,0.09-0.2,0.12c-0.08,0.03-0.18,0.05-0.31,0.05c-0.14-0.01-0.26-0.04-0.37-0.1c-0.07-0.03-0.12-0.06-0.16-0.09     c-0.04-0.04-0.07-0.08-0.1-0.13c-0.03-0.05-0.06-0.11-0.08-0.18s-0.03-0.15-0.03-0.24v-0.89h-0.19v-0.44h0.77v1.24     c0,0.08,0.02,0.15,0.06,0.2s0.09,0.09,0.14,0.12c0.06,0.03,0.12,0.04,0.18,0.03c0.07,0,0.13-0.02,0.18-0.05s0.1-0.07,0.14-0.12     s0.06-0.11,0.06-0.19v-0.8h-0.19v-0.44H15.14z"
   id="path61" />
			<path
   class="st3"
   d="M16.37,21.18c0.04-0.06,0.08-0.11,0.14-0.16c0.05-0.04,0.12-0.08,0.2-0.11c0.08-0.03,0.18-0.04,0.31-0.04     c0.08,0,0.17,0.02,0.25,0.04c0.07,0.02,0.15,0.05,0.22,0.09s0.13,0.11,0.18,0.19c0.05-0.09,0.12-0.15,0.2-0.2     c0.08-0.04,0.16-0.08,0.23-0.1c0.09-0.02,0.18-0.03,0.27-0.03c0.14,0.01,0.26,0.04,0.37,0.09c0.07,0.03,0.12,0.06,0.16,0.09     c0.04,0.03,0.07,0.07,0.11,0.12s0.06,0.11,0.08,0.18c0.02,0.07,0.03,0.15,0.03,0.24v0.9h0.19v0.44h-0.77v-1.24     c0-0.08-0.02-0.15-0.06-0.2s-0.08-0.09-0.14-0.11c-0.06-0.03-0.12-0.04-0.18-0.03s-0.13,0.02-0.19,0.04     c-0.06,0.03-0.1,0.06-0.14,0.11c-0.04,0.05-0.06,0.11-0.06,0.17v0.82h0.2v0.44h-0.78v-1.25c0-0.08-0.02-0.15-0.06-0.2     c-0.04-0.05-0.09-0.09-0.14-0.11s-0.12-0.03-0.19-0.03c-0.07,0-0.13,0.02-0.19,0.05c-0.06,0.03-0.11,0.07-0.14,0.12     c-0.04,0.05-0.06,0.11-0.06,0.18v0.81h0.2v0.44h-0.78v-1.47c0-0.03-0.01-0.06-0.03-0.08c-0.02-0.03-0.07-0.04-0.14-0.04v-0.44     c0.05-0.01,0.11-0.03,0.19-0.04c0.08-0.01,0.16-0.01,0.24,0c0.08,0.01,0.15,0.04,0.2,0.09C16.35,20.99,16.37,21.07,16.37,21.18z"
   id="path63" />
			<path
   class="st3"
   d="M20.96,20.86c0.14,0.01,0.26,0.04,0.37,0.1c0.06,0.03,0.12,0.06,0.15,0.1c0.04,0.04,0.07,0.08,0.1,0.13     c0.03,0.05,0.06,0.11,0.08,0.18c0.02,0.07,0.03,0.15,0.03,0.24v0.65c0,0.09-0.01,0.17-0.03,0.24c-0.02,0.07-0.05,0.13-0.08,0.18     s-0.07,0.09-0.12,0.13c-0.04,0.03-0.09,0.06-0.13,0.08c-0.11,0.05-0.23,0.08-0.37,0.09c-0.08,0-0.16-0.01-0.23-0.03     s-0.13-0.04-0.18-0.07c-0.05-0.03-0.09-0.05-0.13-0.08c-0.03-0.03-0.06-0.05-0.08-0.08v1.22h-0.75v-0.44h0.17v-2.02     c0-0.03-0.01-0.06-0.03-0.1s-0.07-0.05-0.14-0.05v-0.44c0.06-0.02,0.13-0.03,0.21-0.04c0.08-0.01,0.16-0.01,0.23,0.01     c0.08,0.01,0.14,0.05,0.19,0.1s0.08,0.13,0.08,0.23c0-0.01,0.01-0.04,0.04-0.07c0.03-0.04,0.07-0.07,0.12-0.11     c0.05-0.04,0.12-0.07,0.2-0.1C20.76,20.88,20.85,20.86,20.96,20.86z M20.36,22.13c0,0.11,0.04,0.19,0.11,0.25     c0.08,0.06,0.16,0.1,0.25,0.1s0.18-0.02,0.26-0.08s0.12-0.15,0.13-0.28v-0.44c0-0.08-0.02-0.15-0.06-0.2s-0.08-0.09-0.14-0.11     c-0.06-0.03-0.12-0.04-0.18-0.03c-0.07,0-0.13,0.02-0.18,0.05s-0.1,0.07-0.14,0.12c-0.04,0.05-0.06,0.11-0.06,0.19V22.13z"
   id="path65" />
			<path
   class="st3"
   d="M23.01,22.93h-0.77v-2.48c0-0.03-0.01-0.06-0.03-0.08s-0.04-0.03-0.06-0.04c-0.03-0.01-0.06-0.02-0.1-0.02     v-0.44c0.06-0.02,0.14-0.04,0.23-0.05c0.09-0.01,0.17,0,0.25,0.02s0.15,0.05,0.21,0.1c0.06,0.05,0.08,0.12,0.08,0.21v2.33h0.19     V22.93z"
   id="path67" />
			<path
   class="st3"
   d="M23.55,21.33h-0.19v-0.44h0.77v1.47c0,0.03,0.01,0.06,0.03,0.09c0.02,0.03,0.07,0.04,0.16,0.04v0.44     c-0.06,0.02-0.13,0.04-0.22,0.05c-0.09,0.01-0.17,0-0.25-0.02c-0.08-0.02-0.15-0.05-0.21-0.1c-0.06-0.05-0.09-0.12-0.09-0.21     V21.33z M24.13,20.16v0.44h-0.44v-0.44H24.13z"
   id="path69" />
			<path
   class="st3"
   d="M26.75,22.93c-0.05,0.02-0.12,0.04-0.2,0.05s-0.16,0-0.23-0.02c-0.07-0.02-0.14-0.05-0.2-0.1     c-0.06-0.05-0.08-0.11-0.08-0.19c0,0.01-0.01,0.03-0.04,0.07c-0.03,0.03-0.06,0.07-0.12,0.1c-0.05,0.04-0.12,0.07-0.2,0.09     c-0.08,0.03-0.18,0.04-0.29,0.04c-0.14-0.01-0.26-0.04-0.37-0.09c-0.07-0.03-0.12-0.06-0.16-0.09c-0.04-0.03-0.07-0.07-0.1-0.12     c-0.03-0.05-0.06-0.11-0.08-0.17c-0.02-0.07-0.03-0.15-0.03-0.24v-0.67c0-0.09,0.01-0.17,0.03-0.24     c0.02-0.07,0.05-0.13,0.08-0.18c0.04-0.05,0.07-0.09,0.12-0.13c0.04-0.03,0.09-0.06,0.13-0.09c0.11-0.05,0.23-0.08,0.36-0.09     c0.09,0,0.16,0.01,0.23,0.03c0.07,0.02,0.12,0.04,0.18,0.06c0.05,0.02,0.09,0.05,0.13,0.08c0.03,0.03,0.06,0.06,0.08,0.08v-0.8     h-0.19v-0.44h0.77v2.49c0,0.03,0.01,0.05,0.03,0.08c0.02,0.03,0.07,0.04,0.14,0.04V22.93z M26,21.69c0-0.07-0.02-0.13-0.06-0.19     c-0.04-0.05-0.08-0.09-0.14-0.12c-0.06-0.03-0.12-0.04-0.18-0.05c-0.07,0-0.13,0.01-0.18,0.03s-0.1,0.06-0.14,0.11     s-0.06,0.12-0.06,0.21v0.46c0,0.08,0.02,0.15,0.06,0.2s0.08,0.09,0.14,0.11s0.12,0.04,0.18,0.03c0.06,0,0.12-0.02,0.18-0.05     s0.1-0.07,0.14-0.12c0.04-0.05,0.06-0.11,0.06-0.18V21.69z"
   id="path71" />
			<path
   class="st3"
   d="M28.08,20.86c0.14,0,0.28,0.03,0.41,0.08c0.13,0.05,0.24,0.12,0.34,0.22c0.1,0.09,0.17,0.21,0.23,0.33     s0.08,0.27,0.08,0.43c0,0.22-0.05,0.41-0.16,0.57c-0.11,0.16-0.24,0.27-0.39,0.35c-0.16,0.08-0.33,0.12-0.51,0.13     c-0.18,0-0.35-0.03-0.51-0.11c-0.16-0.08-0.29-0.19-0.39-0.35s-0.16-0.35-0.16-0.6c0-0.14,0.02-0.27,0.07-0.4     c0.05-0.13,0.12-0.24,0.21-0.34c0.09-0.1,0.2-0.18,0.33-0.23C27.77,20.89,27.92,20.86,28.08,20.86z M27.61,21.92     c0,0.18,0.04,0.32,0.14,0.42c0.09,0.1,0.21,0.16,0.34,0.16c0.14,0,0.25-0.05,0.34-0.15s0.13-0.24,0.13-0.43     c0-0.1-0.01-0.18-0.04-0.25s-0.06-0.13-0.11-0.18c-0.04-0.05-0.1-0.08-0.16-0.11c-0.06-0.02-0.12-0.04-0.18-0.04     s-0.12,0.01-0.18,0.04c-0.06,0.02-0.11,0.06-0.15,0.11c-0.04,0.05-0.08,0.11-0.1,0.18C27.62,21.74,27.61,21.83,27.61,21.92z"
   id="path73" />
		</g>
	</g>
</g>
<g
   id="Cumplido"
   class="st1">
	<g
   class="st2"
   id="g100">
		<path
   class="st4"
   d="M32.58,14.49C30.46,9.64,25.63,6.26,20,6.26S9.54,9.64,7.42,14.49H1.84v11.03h5.58    c2.12,4.84,6.96,8.23,12.58,8.23s10.46-3.38,12.58-8.23h5.58V14.49H32.58z M20,7.95c4.66,0,8.71,2.66,10.71,6.54h-1.47    c-1.88-3.14-5.31-5.25-9.24-5.25s-7.36,2.11-9.24,5.25H9.29C11.29,10.61,15.34,7.95,20,7.95z M22.81,14.49    c-0.75-0.86-2.22-1.7-5.1-1.48v1.48h-4.85c1.65-2.13,4.23-3.51,7.14-3.51s5.49,1.37,7.14,3.51H22.81z M20,10.13    c-3.4,0-6.4,1.73-8.18,4.35h-0.73c1.85-2.98,5.15-4.97,8.91-4.97s7.06,1.99,8.91,4.97h-0.73C26.4,11.86,23.4,10.13,20,10.13z     M20,32.05c-4.66,0-8.71-2.66-10.71-6.54h1.47c1.88,3.14,5.31,5.25,9.24,5.25s7.36-2.11,9.24-5.25h1.47    C28.71,29.39,24.66,32.05,20,32.05z M17.19,25.51c0.75,0.86,2.22,1.7,5.1,1.48v-1.48h4.85c-1.65,2.13-4.23,3.51-7.14,3.51    s-5.49-1.37-7.14-3.51H17.19z M20,29.87c3.4,0,6.4-1.73,8.18-4.35h0.73c-1.85,2.98-5.15,4.97-8.91,4.97s-7.06-1.99-8.91-4.97h0.73    C13.6,28.14,16.6,29.87,20,29.87z M37.04,24.39H2.96v-8.78h34.08V24.39z"
   id="path80" />
		<g
   id="g98">
			<path
   class="st4"
   d="M8.38,21.6c-0.26,0-0.5-0.03-0.73-0.08c-0.23-0.05-0.44-0.14-0.64-0.26c-0.19-0.12-0.36-0.27-0.5-0.44     s-0.26-0.38-0.34-0.62c-0.05-0.15-0.09-0.32-0.11-0.5c-0.02-0.18-0.03-0.37-0.02-0.55c0.01-0.19,0.03-0.37,0.07-0.55     s0.09-0.35,0.16-0.49c0.09-0.19,0.2-0.35,0.34-0.49c0.13-0.14,0.28-0.26,0.44-0.35c0.16-0.09,0.34-0.16,0.52-0.21     s0.38-0.07,0.58-0.07c0.29,0,0.57,0.02,0.85,0.07c0.28,0.05,0.55,0.13,0.8,0.23v0.67H9.18v-0.2c-0.37-0.06-0.7-0.08-0.98-0.04     c-0.21,0.03-0.4,0.09-0.56,0.17c-0.16,0.09-0.29,0.2-0.4,0.33c-0.11,0.13-0.19,0.29-0.24,0.46c-0.05,0.17-0.08,0.36-0.08,0.56     c0,0.2,0.03,0.4,0.1,0.61c0.07,0.2,0.17,0.39,0.29,0.55c0.13,0.16,0.28,0.3,0.46,0.4c0.18,0.1,0.38,0.15,0.61,0.15h0.8v-0.21H9.8     v0.86H8.38z"
   id="path82" />
			<path
   class="st4"
   d="M13.4,18.6v2.16c0,0.04,0.02,0.09,0.05,0.13c0.03,0.04,0.1,0.06,0.21,0.06v0.65     c-0.1,0.03-0.2,0.05-0.32,0.07c-0.12,0.01-0.23,0-0.34-0.02c-0.11-0.03-0.2-0.08-0.27-0.16c-0.07-0.08-0.11-0.19-0.11-0.33     c-0.05,0.1-0.12,0.18-0.21,0.25c-0.08,0.07-0.18,0.13-0.3,0.18c-0.12,0.05-0.27,0.07-0.46,0.07c-0.2-0.02-0.38-0.07-0.54-0.15     c-0.1-0.04-0.18-0.09-0.23-0.14c-0.05-0.05-0.1-0.12-0.15-0.19s-0.09-0.16-0.12-0.27c-0.03-0.1-0.04-0.22-0.04-0.35v-1.31h-0.28     V18.6h1.14v1.83c0,0.12,0.03,0.22,0.08,0.3c0.06,0.08,0.13,0.14,0.21,0.17c0.08,0.04,0.17,0.06,0.27,0.05     c0.1,0,0.19-0.03,0.27-0.07s0.15-0.1,0.21-0.18c0.06-0.08,0.08-0.17,0.08-0.28v-1.18h-0.28V18.6H13.4z"
   id="path84" />
			<path
   class="st4"
   d="M15.22,19.02c0.05-0.08,0.12-0.16,0.21-0.23c0.08-0.06,0.18-0.12,0.3-0.16c0.12-0.04,0.27-0.07,0.46-0.07     c0.12,0,0.25,0.02,0.37,0.06c0.11,0.03,0.21,0.07,0.32,0.14s0.19,0.16,0.27,0.28c0.08-0.13,0.17-0.22,0.29-0.29     c0.12-0.07,0.23-0.11,0.35-0.14c0.13-0.03,0.26-0.05,0.4-0.05c0.2,0.01,0.39,0.05,0.55,0.13c0.1,0.04,0.17,0.08,0.23,0.13     s0.11,0.11,0.16,0.18c0.05,0.07,0.09,0.16,0.12,0.26c0.03,0.1,0.04,0.22,0.04,0.35v1.33h0.28v0.65h-1.14v-1.84     c0-0.12-0.03-0.22-0.08-0.29c-0.06-0.08-0.13-0.13-0.21-0.17c-0.08-0.04-0.17-0.05-0.27-0.05c-0.1,0-0.19,0.03-0.27,0.06     c-0.08,0.04-0.15,0.09-0.21,0.16c-0.06,0.07-0.08,0.16-0.08,0.25v1.22h0.29v0.65h-1.15v-1.84c0-0.12-0.03-0.22-0.08-0.3     c-0.06-0.08-0.13-0.13-0.21-0.17c-0.09-0.03-0.18-0.05-0.28-0.04s-0.19,0.03-0.28,0.07s-0.16,0.1-0.21,0.17     c-0.06,0.07-0.08,0.16-0.08,0.27v1.19h0.29v0.65h-1.15v-2.17c0-0.04-0.02-0.08-0.05-0.12c-0.03-0.04-0.1-0.06-0.21-0.06V18.6     c0.07-0.02,0.17-0.04,0.29-0.06c0.12-0.02,0.23-0.02,0.35,0c0.12,0.02,0.22,0.06,0.3,0.13C15.18,18.74,15.22,18.86,15.22,19.02z"
   id="path86" />
			<path
   class="st4"
   d="M21.98,18.55c0.2,0.02,0.39,0.06,0.55,0.14c0.1,0.04,0.17,0.09,0.23,0.14c0.06,0.05,0.11,0.11,0.15,0.19     c0.05,0.07,0.08,0.16,0.12,0.26s0.05,0.22,0.05,0.35v0.95c0,0.13-0.02,0.25-0.05,0.35c-0.03,0.1-0.07,0.19-0.12,0.27     c-0.05,0.07-0.11,0.14-0.17,0.19c-0.07,0.05-0.13,0.09-0.2,0.12c-0.16,0.08-0.34,0.13-0.54,0.14c-0.12,0-0.23-0.01-0.33-0.04     c-0.1-0.03-0.18-0.06-0.26-0.1c-0.08-0.04-0.14-0.08-0.19-0.12c-0.05-0.04-0.09-0.08-0.12-0.11v1.8h-1.11v-0.65h0.25v-2.98     c0-0.04-0.02-0.09-0.04-0.14c-0.03-0.05-0.1-0.08-0.21-0.08V18.6c0.08-0.03,0.19-0.05,0.3-0.06c0.12-0.01,0.23-0.01,0.34,0.01     c0.11,0.02,0.21,0.07,0.29,0.14c0.08,0.07,0.12,0.19,0.12,0.33c0-0.02,0.02-0.06,0.06-0.11c0.04-0.05,0.1-0.1,0.17-0.16     c0.08-0.05,0.18-0.1,0.3-0.14S21.82,18.55,21.98,18.55z M21.1,20.42c0,0.16,0.06,0.28,0.17,0.37c0.11,0.09,0.24,0.14,0.38,0.15     c0.14,0.01,0.27-0.03,0.38-0.11s0.18-0.22,0.2-0.41v-0.65c0-0.12-0.03-0.22-0.08-0.3c-0.06-0.08-0.12-0.13-0.21-0.17     c-0.08-0.04-0.17-0.05-0.27-0.04c-0.1,0.01-0.19,0.03-0.27,0.07s-0.15,0.1-0.21,0.17c-0.06,0.07-0.08,0.17-0.08,0.27V20.42z"
   id="path88" />
			<path
   class="st4"
   d="M25.01,21.6h-1.14v-3.66c0-0.05-0.02-0.08-0.04-0.11c-0.03-0.03-0.06-0.04-0.09-0.06     c-0.04-0.02-0.09-0.02-0.14-0.02V17.1c0.09-0.04,0.2-0.06,0.33-0.07c0.13-0.01,0.25,0,0.38,0.02c0.12,0.03,0.22,0.08,0.31,0.15     c0.08,0.07,0.13,0.18,0.13,0.31v3.44h0.28V21.6z"
   id="path90" />
			<path
   class="st4"
   d="M25.8,19.24h-0.28V18.6h1.14v2.17c0,0.05,0.02,0.09,0.05,0.13c0.03,0.04,0.11,0.06,0.23,0.06v0.65     c-0.09,0.04-0.2,0.06-0.33,0.07s-0.25,0-0.38-0.02c-0.12-0.03-0.22-0.08-0.31-0.15c-0.09-0.07-0.13-0.18-0.13-0.31V19.24z      M26.66,17.52v0.65h-0.65v-0.65H26.66z"
   id="path92" />
			<path
   class="st4"
   d="M30.53,21.6c-0.08,0.04-0.17,0.06-0.29,0.07c-0.12,0.01-0.23,0-0.34-0.03c-0.11-0.03-0.21-0.08-0.29-0.15     c-0.08-0.07-0.12-0.16-0.12-0.28c0,0.02-0.02,0.05-0.06,0.1c-0.04,0.05-0.1,0.1-0.17,0.15c-0.08,0.05-0.18,0.1-0.3,0.14     c-0.12,0.04-0.26,0.06-0.43,0.06c-0.2-0.01-0.38-0.06-0.54-0.13c-0.1-0.04-0.18-0.08-0.23-0.13c-0.05-0.05-0.11-0.11-0.15-0.18     s-0.09-0.16-0.12-0.26c-0.03-0.1-0.04-0.22-0.04-0.35v-0.98c0-0.13,0.02-0.25,0.04-0.35c0.03-0.1,0.07-0.19,0.12-0.26     c0.05-0.08,0.11-0.14,0.17-0.19c0.06-0.05,0.13-0.09,0.2-0.13c0.16-0.08,0.33-0.12,0.53-0.13c0.13,0,0.24,0.01,0.34,0.04     c0.1,0.03,0.18,0.06,0.26,0.09c0.07,0.04,0.14,0.07,0.19,0.12s0.09,0.08,0.12,0.12v-1.18h-0.28V17.1h1.14v3.67     c0,0.04,0.02,0.08,0.05,0.12c0.03,0.04,0.1,0.06,0.2,0.06V21.6z M29.42,19.77c0-0.11-0.03-0.2-0.08-0.28     c-0.06-0.08-0.12-0.14-0.21-0.18s-0.17-0.06-0.27-0.07c-0.1,0-0.18,0.01-0.27,0.04c-0.08,0.03-0.15,0.09-0.21,0.17     c-0.06,0.08-0.08,0.18-0.08,0.3v0.68c0,0.12,0.03,0.22,0.08,0.29c0.06,0.08,0.12,0.13,0.21,0.17s0.17,0.05,0.27,0.05     c0.1,0,0.19-0.03,0.27-0.07s0.15-0.1,0.21-0.17c0.06-0.07,0.08-0.16,0.08-0.27V19.77z"
   id="path94" />
			<path
   class="st4"
   d="M32.48,18.55c0.21,0,0.41,0.04,0.6,0.11c0.19,0.08,0.36,0.18,0.5,0.32c0.14,0.14,0.26,0.3,0.34,0.49     c0.08,0.19,0.12,0.4,0.12,0.63c0,0.33-0.08,0.61-0.23,0.84c-0.16,0.23-0.35,0.4-0.58,0.52c-0.23,0.12-0.48,0.18-0.75,0.19     c-0.27,0.01-0.52-0.05-0.75-0.16c-0.23-0.11-0.42-0.28-0.58-0.51c-0.15-0.23-0.23-0.52-0.23-0.88c0-0.2,0.04-0.4,0.11-0.59     c0.07-0.19,0.18-0.35,0.31-0.5c0.14-0.14,0.3-0.26,0.49-0.34C32.03,18.6,32.24,18.55,32.48,18.55z M31.79,20.11     c0,0.26,0.07,0.47,0.2,0.62c0.13,0.15,0.3,0.23,0.51,0.23c0.2,0,0.37-0.08,0.5-0.23c0.13-0.15,0.2-0.36,0.2-0.63     c0-0.14-0.02-0.26-0.06-0.37s-0.09-0.19-0.16-0.26c-0.07-0.07-0.14-0.13-0.23-0.16c-0.09-0.04-0.17-0.05-0.27-0.05     c-0.09,0-0.18,0.02-0.26,0.05c-0.08,0.04-0.16,0.09-0.22,0.16c-0.06,0.07-0.12,0.16-0.15,0.26S31.79,19.97,31.79,20.11z"
   id="path96" />
		</g>
	</g>
</g>
</svg>
