<?xml version="1.0" encoding="UTF-8" standalone="no"?>
<svg
   xmlns:dc="http://purl.org/dc/elements/1.1/"
   xmlns:cc="http://creativecommons.org/ns#"
   xmlns:rdf="http://www.w3.org/1999/02/22-rdf-syntax-ns#"
   xmlns:svg="http://www.w3.org/2000/svg"
   xmlns="http://www.w3.org/2000/svg"
   xmlns:sodipodi="http://sodipodi.sourceforge.net/DTD/sodipodi-0.dtd"
   xmlns:inkscape="http://www.inkscape.org/namespaces/inkscape"
   version="1.1"
   x="0px"
   y="0px"
   viewBox="0 0 40 40"
   style="enable-background:new 0 0 40 40;"
   xml:space="preserve"
   id="svg103"
   sodipodi:docname="parcialmentecumplido.svg"
   inkscape:version="1.0.2 (1.0.2+r75+1)"><metadata
   id="metadata109"><rdf:RDF><cc:Work
       rdf:about=""><dc:format>image/svg+xml</dc:format><dc:type
         rdf:resource="http://purl.org/dc/dcmitype/StillImage" /></cc:Work></rdf:RDF></metadata><defs
   id="defs107" /><sodipodi:namedview
   pagecolor="#ffffff"
   bordercolor="#666666"
   borderopacity="1"
   objecttolerance="10"
   gridtolerance="10"
   guidetolerance="10"
   inkscape:pageopacity="0"
   inkscape:pageshadow="2"
   inkscape:window-width="1920"
   inkscape:window-height="984"
   id="namedview105"
   showgrid="false"
   inkscape:zoom="20.75"
   inkscape:cx="20"
   inkscape:cy="20.722892"
   inkscape:window-x="0"
   inkscape:window-y="24"
   inkscape:window-maximized="1"
   inkscape:current-layer="g75"
   inkscape:document-rotation="0" />
<style
   type="text/css"
   id="style2">
	.st0{display:none;}
	.st1{display:inline;}
	.st2{fill:#C9556E;}
	.st3{fill:#F9BC86;}
	.st4{fill:#7EA48B;}
</style>
<g
   id="g940"><circle
     style="opacity:0.999;fill:#ffffff;stroke-width:4.112;stroke-linecap:round;paint-order:markers fill stroke"
     id="path934"
     cx="19.947872"
     cy="19.94886"
     r="12.916777" /><rect
     style="opacity:0.999;fill:#ffffff;stroke-width:4.112;stroke-linecap:round;paint-order:markers fill stroke"
     id="rect936"
     width="35.29343"
     height="10.144021"
     x="2.3022683"
     y="14.938672" /></g><g
   id="Incumplido"
   class="st0">
	<g
   class="st1"
   id="g30">
		<g
   id="g6">
			<path
   class="st2"
   d="M32.58,14.49C30.46,9.64,25.63,6.26,20,6.26S9.54,9.64,7.42,14.49H1.84v11.03h5.58     c2.12,4.84,6.96,8.23,12.58,8.23s10.46-3.38,12.58-8.23h5.58V14.49H32.58z M20,7.95c4.66,0,8.71,2.66,10.71,6.54h-1.47     c-1.88-3.14-5.31-5.25-9.24-5.25s-7.36,2.11-9.24,5.25H9.29C11.29,10.61,15.34,7.95,20,7.95z M22.81,14.49     c-0.75-0.86-2.22-1.7-5.1-1.48v1.48h-4.85c1.65-2.13,4.23-3.51,7.14-3.51s5.49,1.37,7.14,3.51H22.81z M20,10.13     c-3.4,0-6.4,1.73-8.18,4.35h-0.73c1.85-2.98,5.15-4.97,8.91-4.97s7.06,1.99,8.91,4.97h-0.73C26.4,11.86,23.4,10.13,20,10.13z      M20,32.05c-4.66,0-8.71-2.66-10.71-6.54h1.47c1.88,3.14,5.31,5.25,9.24,5.25s7.36-2.11,9.24-5.25h1.47     C28.71,29.39,24.66,32.05,20,32.05z M17.19,25.51c0.75,0.86,2.22,1.7,5.1,1.48v-1.48h4.85c-1.65,2.13-4.23,3.51-7.14,3.51     s-5.49-1.37-7.14-3.51H17.19z M20,29.87c3.4,0,6.4-1.73,8.18-4.35h0.73c-1.85,2.98-5.15,4.97-8.91,4.97s-7.06-1.99-8.91-4.97     h0.73C13.6,28.14,16.6,29.87,20,29.87z M37.04,24.39H2.96v-8.78h34.08V24.39z"
   id="path4" />
		</g>
		<g
   id="g28">
			<path
   class="st2"
   d="M3.97,17.74H3.7V17.1h1.39v0.65H4.82v3.2h0.26v0.65H3.7v-0.65h0.26V17.74z"
   id="path8" />
			<path
   class="st2"
   d="M7.02,21.6H5.87v-2.16c0-0.04-0.02-0.09-0.05-0.13s-0.1-0.06-0.21-0.06V18.6c0.1-0.03,0.2-0.05,0.32-0.07     c0.12-0.01,0.23,0,0.34,0.02s0.2,0.08,0.27,0.16c0.07,0.08,0.11,0.19,0.11,0.33c0.05-0.09,0.12-0.17,0.21-0.24     c0.08-0.06,0.18-0.12,0.3-0.17c0.12-0.05,0.27-0.07,0.46-0.07c0.2,0.01,0.39,0.06,0.55,0.14c0.1,0.04,0.17,0.08,0.22,0.13     c0.05,0.05,0.1,0.11,0.15,0.19c0.05,0.07,0.09,0.16,0.12,0.26c0.03,0.1,0.04,0.22,0.04,0.35v1.31H9v0.65H7.86v-1.83     c0-0.12-0.03-0.22-0.08-0.3c-0.06-0.08-0.13-0.13-0.21-0.17s-0.17-0.06-0.27-0.05c-0.1,0-0.19,0.03-0.27,0.07     s-0.15,0.1-0.21,0.18c-0.06,0.08-0.08,0.17-0.08,0.28v1.18h0.28L7.02,21.6z"
   id="path10" />
			<path
   class="st2"
   d="M11.84,20.69c0.06,0.09,0.11,0.19,0.16,0.28c0.05,0.09,0.1,0.19,0.16,0.28c-0.19,0.14-0.4,0.24-0.63,0.31     c-0.23,0.07-0.46,0.1-0.69,0.1c-0.24,0-0.46-0.04-0.63-0.13c-0.18-0.09-0.32-0.2-0.44-0.35c-0.11-0.14-0.19-0.31-0.25-0.49     c-0.05-0.18-0.08-0.37-0.08-0.56c0-0.24,0.04-0.46,0.13-0.66c0.09-0.19,0.2-0.36,0.35-0.5c0.14-0.14,0.31-0.24,0.5-0.31     c0.19-0.07,0.39-0.11,0.6-0.11c0.2,0,0.39,0.03,0.58,0.08c0.19,0.05,0.38,0.14,0.56,0.27v0.64h-0.64v-0.21     c-0.22-0.07-0.42-0.1-0.6-0.07c-0.11,0.01-0.19,0.03-0.25,0.07c-0.06,0.04-0.12,0.09-0.17,0.16c-0.05,0.07-0.1,0.16-0.13,0.27     c-0.03,0.11-0.05,0.25-0.05,0.41c0,0.02,0,0.06,0,0.13s0.02,0.15,0.04,0.23c0.02,0.08,0.06,0.16,0.12,0.24     c0.06,0.08,0.14,0.13,0.25,0.17c0.11,0.03,0.26,0.04,0.44,0.01C11.35,20.9,11.58,20.82,11.84,20.69z"
   id="path12" />
			<path
   class="st2"
   d="M15.71,18.6v2.16c0,0.04,0.02,0.09,0.05,0.13c0.03,0.04,0.1,0.06,0.21,0.06v0.65     c-0.1,0.03-0.2,0.05-0.32,0.07c-0.12,0.01-0.23,0-0.34-0.02c-0.11-0.03-0.2-0.08-0.27-0.16c-0.07-0.08-0.11-0.19-0.11-0.33     c-0.05,0.1-0.12,0.18-0.21,0.25c-0.08,0.07-0.18,0.13-0.3,0.18c-0.12,0.05-0.27,0.08-0.46,0.08c-0.2-0.02-0.38-0.07-0.54-0.15     c-0.1-0.04-0.18-0.09-0.23-0.14c-0.05-0.05-0.11-0.12-0.15-0.19s-0.09-0.17-0.12-0.27s-0.04-0.22-0.04-0.35v-1.31h-0.28V18.6     h1.14v1.83c0,0.12,0.03,0.22,0.08,0.3c0.06,0.08,0.13,0.14,0.21,0.17c0.08,0.04,0.17,0.06,0.27,0.05c0.1,0,0.19-0.03,0.27-0.07     s0.15-0.1,0.21-0.18c0.06-0.08,0.08-0.17,0.08-0.28v-1.18h-0.28V18.6H15.71z"
   id="path14" />
			<path
   class="st2"
   d="M17.53,19.02c0.05-0.08,0.12-0.16,0.21-0.23c0.08-0.06,0.18-0.12,0.3-0.16c0.12-0.04,0.27-0.07,0.46-0.07     c0.12,0,0.25,0.02,0.37,0.06c0.11,0.03,0.21,0.07,0.32,0.14c0.1,0.06,0.19,0.16,0.27,0.28c0.08-0.13,0.17-0.22,0.29-0.29     c0.12-0.07,0.23-0.11,0.34-0.14c0.13-0.03,0.26-0.05,0.4-0.05c0.2,0.01,0.39,0.05,0.55,0.13c0.1,0.04,0.17,0.08,0.23,0.13     s0.11,0.11,0.16,0.18c0.05,0.07,0.09,0.16,0.12,0.26c0.03,0.1,0.04,0.22,0.04,0.35v1.33h0.28v0.65h-1.14v-1.84     c0-0.12-0.03-0.22-0.08-0.29c-0.06-0.08-0.13-0.13-0.21-0.17c-0.08-0.04-0.17-0.05-0.27-0.05c-0.1,0-0.19,0.03-0.27,0.06     c-0.08,0.04-0.15,0.09-0.21,0.16c-0.06,0.07-0.08,0.16-0.08,0.25v1.22h0.29v0.65h-1.15v-1.84c0-0.12-0.03-0.22-0.08-0.3     c-0.06-0.08-0.13-0.13-0.21-0.17c-0.09-0.03-0.18-0.05-0.28-0.04c-0.1,0-0.19,0.03-0.28,0.07s-0.16,0.1-0.21,0.17     c-0.06,0.07-0.08,0.16-0.08,0.27v1.19h0.29v0.65h-1.15v-2.17c0-0.04-0.02-0.08-0.05-0.12s-0.1-0.06-0.21-0.06V18.6     c0.07-0.02,0.17-0.04,0.29-0.06s0.23-0.02,0.35,0s0.22,0.06,0.3,0.13C17.49,18.74,17.53,18.86,17.53,19.02z"
   id="path16" />
			<path
   class="st2"
   d="M24.29,18.55c0.2,0.02,0.39,0.06,0.55,0.14c0.1,0.04,0.17,0.09,0.23,0.14c0.06,0.05,0.11,0.11,0.15,0.19     c0.05,0.07,0.08,0.16,0.12,0.26s0.05,0.22,0.05,0.35v0.95c0,0.13-0.02,0.25-0.05,0.35c-0.03,0.1-0.07,0.19-0.12,0.26     c-0.05,0.08-0.11,0.14-0.17,0.19c-0.07,0.05-0.13,0.09-0.2,0.12c-0.16,0.08-0.34,0.13-0.54,0.14c-0.12,0-0.23-0.01-0.33-0.04     c-0.1-0.03-0.18-0.06-0.26-0.1c-0.08-0.04-0.14-0.08-0.19-0.12c-0.05-0.04-0.09-0.08-0.12-0.11v1.81H22.3v-0.65h0.25v-2.98     c0-0.04-0.01-0.09-0.04-0.14c-0.03-0.05-0.1-0.08-0.21-0.08V18.6c0.08-0.03,0.18-0.05,0.3-0.06s0.23-0.01,0.35,0.01     c0.11,0.02,0.21,0.07,0.28,0.14c0.08,0.07,0.12,0.19,0.12,0.33c0-0.02,0.02-0.06,0.06-0.11c0.04-0.05,0.1-0.1,0.17-0.16     c0.08-0.05,0.18-0.1,0.3-0.14S24.13,18.55,24.29,18.55z M23.41,20.42c0,0.16,0.06,0.28,0.17,0.37c0.11,0.09,0.24,0.14,0.38,0.15     c0.14,0.01,0.27-0.03,0.38-0.11s0.18-0.22,0.2-0.41v-0.65c0-0.12-0.03-0.22-0.08-0.3c-0.06-0.08-0.12-0.13-0.21-0.17     c-0.08-0.04-0.17-0.05-0.27-0.04c-0.1,0.01-0.19,0.03-0.27,0.07s-0.15,0.1-0.21,0.17c-0.06,0.07-0.08,0.17-0.08,0.27V20.42z"
   id="path18" />
			<path
   class="st2"
   d="M27.32,21.6h-1.14v-3.66c0-0.05-0.02-0.08-0.04-0.11c-0.03-0.03-0.06-0.04-0.09-0.06     c-0.04-0.02-0.09-0.02-0.14-0.02V17.1c0.09-0.04,0.2-0.06,0.33-0.07c0.13-0.01,0.25,0,0.38,0.02c0.12,0.03,0.22,0.08,0.31,0.15     c0.08,0.07,0.13,0.18,0.13,0.31v3.44h0.28V21.6z"
   id="path20" />
			<path
   class="st2"
   d="M28.11,19.24h-0.28V18.6h1.14v2.17c0,0.05,0.02,0.09,0.05,0.13c0.03,0.04,0.11,0.06,0.23,0.06v0.65     c-0.09,0.04-0.2,0.06-0.33,0.07c-0.13,0.01-0.25,0-0.38-0.02c-0.12-0.03-0.22-0.08-0.31-0.15s-0.13-0.18-0.13-0.31V19.24z      M28.97,17.52v0.65h-0.65v-0.65H28.97z"
   id="path22" />
			<path
   class="st2"
   d="M32.84,21.6c-0.08,0.04-0.17,0.06-0.29,0.07c-0.12,0.01-0.23,0-0.34-0.03s-0.21-0.08-0.29-0.15     s-0.12-0.16-0.12-0.28c0,0.02-0.02,0.05-0.06,0.1s-0.1,0.1-0.17,0.15c-0.08,0.05-0.18,0.1-0.3,0.14s-0.26,0.06-0.43,0.06     c-0.2-0.01-0.38-0.06-0.54-0.13c-0.1-0.04-0.18-0.08-0.23-0.13c-0.05-0.05-0.11-0.11-0.15-0.18c-0.05-0.07-0.09-0.16-0.12-0.26     c-0.03-0.1-0.04-0.22-0.04-0.35v-0.98c0-0.13,0.02-0.25,0.04-0.35c0.03-0.1,0.07-0.19,0.12-0.26c0.05-0.08,0.11-0.14,0.17-0.19     c0.06-0.05,0.13-0.09,0.2-0.13c0.16-0.08,0.33-0.12,0.53-0.13c0.13,0,0.24,0.01,0.34,0.04c0.1,0.03,0.18,0.06,0.26,0.09     c0.07,0.04,0.14,0.07,0.19,0.12s0.09,0.08,0.12,0.12v-1.18h-0.28V17.1h1.14v3.67c0,0.04,0.02,0.08,0.05,0.12     c0.03,0.04,0.1,0.06,0.2,0.06V21.6z M31.73,19.77c0-0.11-0.03-0.2-0.08-0.28c-0.06-0.08-0.12-0.14-0.21-0.18     s-0.17-0.06-0.27-0.07c-0.1,0-0.18,0.01-0.27,0.04c-0.08,0.03-0.15,0.09-0.21,0.17c-0.06,0.08-0.08,0.18-0.08,0.3v0.68     c0,0.12,0.03,0.22,0.08,0.29c0.06,0.08,0.12,0.13,0.21,0.17c0.08,0.04,0.17,0.05,0.27,0.05c0.1,0,0.19-0.03,0.27-0.07     s0.15-0.1,0.21-0.17c0.06-0.07,0.08-0.16,0.08-0.27V19.77z"
   id="path24" />
			<path
   class="st2"
   d="M34.79,18.55c0.21,0,0.41,0.04,0.6,0.11c0.19,0.08,0.36,0.18,0.5,0.32c0.14,0.14,0.26,0.3,0.34,0.49     c0.08,0.19,0.12,0.4,0.12,0.63c0,0.33-0.08,0.61-0.23,0.84c-0.16,0.23-0.35,0.4-0.58,0.52c-0.23,0.12-0.48,0.18-0.75,0.19     c-0.27,0.01-0.52-0.05-0.75-0.16c-0.23-0.11-0.42-0.28-0.58-0.51c-0.15-0.23-0.23-0.52-0.23-0.88c0-0.2,0.04-0.4,0.11-0.59     c0.07-0.19,0.18-0.35,0.31-0.5c0.14-0.14,0.3-0.26,0.49-0.34C34.34,18.6,34.55,18.55,34.79,18.55z M34.1,20.11     c0,0.26,0.07,0.47,0.2,0.62c0.13,0.15,0.3,0.23,0.51,0.23c0.2,0,0.37-0.08,0.5-0.23c0.13-0.15,0.2-0.36,0.2-0.63     c0-0.14-0.02-0.26-0.06-0.37s-0.09-0.19-0.16-0.26c-0.07-0.07-0.14-0.13-0.23-0.16c-0.09-0.04-0.17-0.05-0.27-0.05     c-0.09,0-0.18,0.02-0.26,0.05c-0.08,0.04-0.16,0.09-0.22,0.16c-0.06,0.07-0.12,0.16-0.15,0.26S34.1,19.97,34.1,20.11z"
   id="path26" />
		</g>
	</g>
</g>
<g
   id="parcialmente"
   style="fill:#ff6600">
	<g
   id="g77"
   style="fill:#ff6600">
		<path
   class="st3"
   d="M32.58,14.49C30.46,9.64,25.63,6.26,20,6.26S9.54,9.64,7.42,14.49H1.84v11.03h5.58    c2.12,4.84,6.96,8.23,12.58,8.23s10.46-3.38,12.58-8.23h5.58V14.49H32.58z M20,7.95c4.66,0,8.71,2.66,10.71,6.54h-1.47    c-1.88-3.14-5.31-5.25-9.24-5.25s-7.36,2.11-9.24,5.25H9.29C11.29,10.61,15.34,7.95,20,7.95z M22.81,14.49    c-0.75-0.86-2.22-1.7-5.1-1.48v1.48h-4.85c1.65-2.13,4.23-3.51,7.14-3.51s5.49,1.37,7.14,3.51H22.81z M20,10.13    c-3.4,0-6.4,1.73-8.18,4.35h-0.73c1.85-2.98,5.15-4.97,8.91-4.97s7.06,1.99,8.91,4.97h-0.73C26.4,11.86,23.4,10.13,20,10.13z     M20,32.05c-4.66,0-8.71-2.66-10.71-6.54h1.47c1.88,3.14,5.31,5.25,9.24,5.25s7.36-2.11,9.24-5.25h1.47    C28.71,29.39,24.66,32.05,20,32.05z M17.19,25.51c0.75,0.86,2.22,1.7,5.1,1.48v-1.48h4.85c-1.65,2.13-4.23,3.51-7.14,3.51    s-5.49-1.37-7.14-3.51H17.19z M20,29.87c3.4,0,6.4-1.73,8.18-4.35h0.73c-1.85,2.98-5.15,4.97-8.91,4.97s-7.06-1.99-8.91-4.97h0.73    C13.6,28.14,16.6,29.87,20,29.87z M37.04,24.39H2.96v-8.78h34.08V24.39z"
   id="path33"
   style="fill:#ff6600" />
		<g
   id="g75"
   style="fill:#ff6600">
			<path
   class="st3"
   d="M 4.7212385,21.152506 V 18.568557 H 4.5069016 v -0.523936 h 1.4527276 c 0.2857825,0 0.5120269,0.05954 0.7025485,0.178615 0.1905217,0.119076 0.3215053,0.261967 0.4167661,0.440581 0.095261,0.178614 0.1428913,0.369136 0.1428913,0.571565 0,0.202429 -0.047631,0.392951 -0.1428913,0.571565 -0.095261,0.178614 -0.2381521,0.321506 -0.4167661,0.440581 -0.2024292,0.107169 -0.4405812,0.166706 -0.7144561,0.166706 H 5.4118795 v 0.726365 h 0.2143368 v 0.523934 H 4.5069016 V 21.152506 Z M 5.8405531,18.556649 H 5.4118795 V 19.8903 h 0.4286736 c 0.1309837,-0.01191 0.2381522,-0.03572 0.3453206,-0.08335 0.059538,-0.02382 0.1071684,-0.05954 0.1428912,-0.08336 0.035723,-0.03572 0.071445,-0.07145 0.095261,-0.119077 0.023816,-0.04763 0.04763,-0.09525 0.071445,-0.166706 0.023816,-0.05954 0.023816,-0.130984 0.023816,-0.226244 0,-0.166707 -0.035723,-0.29769 -0.1071684,-0.392951 C 6.3406729,18.723361 6.269227,18.663818 6.1858739,18.616188 6.0787055,18.592371 5.971537,18.568555 5.8405533,18.556646 Z"
   id="path35"
   style="fill:#ff6600;stroke-width:1" />
			<path
   class="st3"
   d="M 8.4125953,21.724071 C 8.2458889,21.712163 8.1029976,21.67644 7.972014,21.604995 7.8886608,21.569272 7.8291228,21.533549 7.7814923,21.497827 7.733862,21.462104 7.6981392,21.402566 7.6624164,21.343028 7.6266936,21.28349 7.5909708,21.212044 7.5671555,21.12869 7.5433403,21.045338 7.5314327,20.950077 7.5314327,20.842909 v -0.773995 c 0,-0.107169 0.011907,-0.202429 0.035723,-0.285782 0.023816,-0.08336 0.059538,-0.154799 0.095261,-0.214337 0.035723,-0.05954 0.083354,-0.107169 0.1428912,-0.154798 0.04763,-0.03572 0.1071684,-0.07145 0.1547988,-0.10717 0.1309837,-0.05954 0.2738749,-0.09525 0.4405813,-0.107168 0.095261,0 0.1905217,0.01191 0.2738749,0.03572 0.083354,0.02382 0.1547988,0.04763 0.2262444,0.07145 0.059538,0.03572 0.1190761,0.05954 0.1667065,0.09526 0.04763,0.03572 0.083354,0.05954 0.1071684,0.09526 v -0.250056 h 0.8454398 v 0.523936 H 9.8176924 v 1.226482 c 0,0.03573 0.011907,0.07145 0.035723,0.107169 0.023816,0.03572 0.083354,0.05954 0.1667066,0.05954 v 0.512026 c -0.059539,0.03572 -0.1428914,0.04763 -0.2381522,0.05954 -0.095261,0.01191 -0.1905216,0 -0.2738748,-0.02382 -0.083354,-0.02382 -0.1667065,-0.05954 -0.2262445,-0.119075 -0.059538,-0.05954 -0.095261,-0.142892 -0.095261,-0.25006 0,0.01191 -0.011907,0.04763 -0.04763,0.08336 -0.035723,0.04763 -0.083354,0.08336 -0.1428912,0.130983 -0.059538,0.04763 -0.1428912,0.08335 -0.2381521,0.119076 -0.1071684,0.02382 -0.2143369,0.04763 -0.3453204,0.04763 z m 0.7620866,-1.512266 c 0,-0.08336 -0.023815,-0.154799 -0.071445,-0.226244 -0.04763,-0.05954 -0.1071684,-0.107168 -0.1667065,-0.142891 -0.071445,-0.03572 -0.1428912,-0.04763 -0.2262444,-0.05954 -0.083354,0 -0.1547988,0.01191 -0.2262444,0.03572 -0.071445,0.02382 -0.1309836,0.07145 -0.1786141,0.142891 -0.04763,0.07145 -0.083354,0.142892 -0.083354,0.25006 v 0.535843 c 0,0.09527 0.023815,0.178613 0.071445,0.238152 0.04763,0.05954 0.1071684,0.107168 0.178614,0.14289 0.071445,0.03572 0.1428912,0.03572 0.2262445,0.03572 0.083354,0 0.1547988,-0.02382 0.2262445,-0.05954 0.071445,-0.03573 0.1309835,-0.08336 0.178614,-0.142892 0.04763,-0.05954 0.071445,-0.130984 0.071445,-0.214336 z"
   id="path37"
   style="fill:#ff6600;stroke-width:1" />
			<path
   class="st3"
   d="m 10.508334,19.247289 c 0.07145,-0.02382 0.154799,-0.04763 0.261967,-0.04763 0.09525,-0.01191 0.190522,0 0.273874,0.02382 0.08336,0.02382 0.154799,0.05954 0.226245,0.119075 0.05954,0.05954 0.09525,0.142892 0.09525,0.25006 0.04763,-0.07145 0.09526,-0.130984 0.166707,-0.190522 0.05954,-0.04763 0.142891,-0.09526 0.238152,-0.130983 0.09526,-0.03572 0.214337,-0.05954 0.369136,-0.05954 0.02382,0 0.04763,0 0.07145,0 0.02382,0 0.04763,0.01191 0.07145,0.01191 0.02382,0 0.05954,0.01191 0.08336,0.01191 v 0.523934 c -0.178614,-0.01191 -0.333413,0.01191 -0.476305,0.05954 -0.08335,0.02382 -0.154798,0.04763 -0.202429,0.08336 -0.04763,0.03572 -0.09525,0.07145 -0.130983,0.130984 -0.04763,0.04763 -0.07145,0.119075 -0.09526,0.190522 -0.02382,0.07145 -0.03572,0.166706 -0.03572,0.261967 v 0.654918 h 0.238152 v 0.523934 h -0.928792 v -1.750417 c 0,-0.03572 -0.01191,-0.07145 -0.03572,-0.09526 -0.02382,-0.03572 -0.08336,-0.04763 -0.166707,-0.04763 V 19.2473 Z"
   id="path39"
   style="fill:#ff6600;stroke-width:1" />
			<path
   class="st3"
   d="m 14.592641,20.93817 c 0.04763,0.07145 0.08335,0.154798 0.130984,0.226244 0.03572,0.07145 0.08335,0.154798 0.130984,0.226244 -0.154799,0.107169 -0.321506,0.190521 -0.512028,0.25006 -0.190521,0.04763 -0.369135,0.08336 -0.559657,0.08336 -0.20243,0 -0.369136,-0.03572 -0.512027,-0.107169 -0.142891,-0.07145 -0.261967,-0.166706 -0.345321,-0.285781 -0.09525,-0.119077 -0.154798,-0.25006 -0.202429,-0.392951 -0.04763,-0.142892 -0.05954,-0.297691 -0.05954,-0.452489 0,-0.20243 0.03573,-0.369136 0.107169,-0.535843 0.07145,-0.154799 0.166707,-0.285782 0.273875,-0.404858 0.119076,-0.107169 0.25006,-0.190521 0.404858,-0.25006 0.154799,-0.05954 0.309598,-0.08336 0.476304,-0.08336 0.154799,0 0.321505,0.02382 0.476305,0.07145 0.154799,0.04763 0.309597,0.119075 0.452489,0.214336 v 0.523935 h -0.523932 v -0.178614 c -0.178614,-0.05954 -0.345321,-0.07145 -0.488211,-0.05954 -0.08336,0.01191 -0.154799,0.02382 -0.20243,0.04763 -0.04763,0.02382 -0.09526,0.07145 -0.142891,0.130983 -0.04763,0.05954 -0.07145,0.130984 -0.107168,0.214338 -0.02382,0.08336 -0.03573,0.202429 -0.03573,0.321505 0,0.01191 0,0.04763 0,0.107168 0,0.05954 0.01191,0.119077 0.03573,0.178615 0.02382,0.05954 0.04763,0.130983 0.09525,0.190522 0.04763,0.05954 0.119076,0.107168 0.202429,0.130983 0.09527,0.02382 0.214337,0.02382 0.357228,0 0.142891,-0.02382 0.333413,-0.05954 0.54775,-0.166706 z"
   id="path41"
   style="fill:#ff6600;stroke-width:1" />
			<path
   class="st3"
   d="m 15.473804,19.771225 h -0.226245 v -0.523936 h 0.916886 v 1.750418 c 0,0.03573 0.01191,0.07145 0.04763,0.107169 0.03572,0.03572 0.08335,0.04763 0.19052,0.04763 v 0.523934 c -0.07145,0.02382 -0.154798,0.04763 -0.261967,0.05954 -0.107168,0.01191 -0.202429,0 -0.29769,-0.02382 -0.09527,-0.02382 -0.178613,-0.05954 -0.25006,-0.119075 -0.07145,-0.05954 -0.107168,-0.142892 -0.107168,-0.25006 V 19.77123 Z m 0.690641,-1.39319 v 0.523934 H 15.64051 v -0.523934 z"
   id="path43"
   style="fill:#ff6600;stroke-width:1" />
			<path
   class="st3"
   d="m 17.688618,21.724071 c -0.166707,-0.01191 -0.309597,-0.04763 -0.440581,-0.119076 -0.07145,-0.03572 -0.142892,-0.07145 -0.178615,-0.107168 -0.04763,-0.03572 -0.08336,-0.09526 -0.119076,-0.154799 -0.03572,-0.05954 -0.07145,-0.130984 -0.09526,-0.214338 -0.02382,-0.08335 -0.03572,-0.178613 -0.03572,-0.285781 v -0.773995 c 0,-0.107169 0.01191,-0.202429 0.03572,-0.285782 0.02382,-0.08336 0.05954,-0.154799 0.09526,-0.214337 0.03572,-0.05954 0.08336,-0.107169 0.142892,-0.154798 0.04763,-0.03572 0.107168,-0.07145 0.154799,-0.10717 0.130984,-0.05954 0.273874,-0.09525 0.440581,-0.107168 0.09525,0 0.190521,0.01191 0.273875,0.03572 0.08335,0.02382 0.154798,0.04763 0.226244,0.07145 0.05954,0.03572 0.119076,0.05954 0.166707,0.09526 0.04763,0.03572 0.08336,0.05954 0.107168,0.09526 v -0.250056 h 0.84544 v 0.523936 h -0.202429 v 1.226482 c 0,0.03573 0.01191,0.07145 0.03572,0.107169 0.02382,0.03572 0.08336,0.05954 0.166706,0.05954 v 0.512026 c -0.05954,0.03572 -0.142891,0.04763 -0.238152,0.05954 -0.09526,0.01191 -0.190522,0 -0.273875,-0.02382 -0.09526,-0.02382 -0.166707,-0.05954 -0.226245,-0.119075 -0.05954,-0.05954 -0.09526,-0.142892 -0.09526,-0.25006 0,0.01191 -0.01191,0.04763 -0.04763,0.08336 -0.03572,0.04763 -0.08336,0.08336 -0.142891,0.130983 -0.05954,0.04763 -0.142891,0.08335 -0.238152,0.119076 -0.09526,0.03572 -0.226245,0.04763 -0.357228,0.04763 z m 0.762087,-1.512266 c 0,-0.08336 -0.02382,-0.154799 -0.07145,-0.226244 -0.04763,-0.05954 -0.107168,-0.107168 -0.166706,-0.142891 -0.07145,-0.03572 -0.142891,-0.04763 -0.226245,-0.05954 -0.08336,0 -0.154799,0.01191 -0.226244,0.03572 -0.07145,0.02382 -0.130984,0.07145 -0.178614,0.142891 -0.04763,0.07145 -0.08336,0.142892 -0.08336,0.25006 v 0.535843 c 0,0.09527 0.02382,0.178613 0.07145,0.238152 0.04763,0.05954 0.107169,0.107168 0.178615,0.14289 0.07145,0.03572 0.142891,0.03572 0.226244,0.03572 0.08335,0 0.154799,-0.02382 0.226245,-0.05954 0.07145,-0.03573 0.130983,-0.08336 0.178613,-0.142892 0.04763,-0.05954 0.07145,-0.130984 0.07145,-0.214336 z"
   id="path45"
   style="fill:#ff6600;stroke-width:1" />
			<path
   class="st3"
   d="M 20.832225,21.67644 H 19.91534 v -2.953085 c 0,-0.03573 -0.01191,-0.07145 -0.03572,-0.09526 -0.02382,-0.02382 -0.04763,-0.03572 -0.07145,-0.04763 -0.03572,-0.01191 -0.07145,-0.02382 -0.119075,-0.02382 V 18.03271 c 0.07145,-0.02382 0.166706,-0.04763 0.273874,-0.05954 0.107169,-0.01191 0.202429,0 0.29769,0.02382 0.09526,0.02382 0.178615,0.05954 0.25006,0.119077 0.07145,0.05954 0.09526,0.142891 0.09526,0.250059 v 2.774472 h 0.226244 z"
   id="path47"
   style="fill:#ff6600;stroke-width:1" />
			<path
   class="st3"
   d="m 22.094431,19.59261 c 0.04763,-0.07145 0.09527,-0.130984 0.166706,-0.178613 0.05954,-0.04763 0.142891,-0.09526 0.238152,-0.130984 0.09526,-0.03572 0.214337,-0.04763 0.369136,-0.04763 0.09526,0 0.202429,0.02382 0.29769,0.04763 0.08335,0.02382 0.166706,0.05954 0.25006,0.107168 0.08335,0.04763 0.154798,0.130984 0.214336,0.226245 0.05954,-0.107169 0.142892,-0.178615 0.238153,-0.238153 0.09526,-0.04763 0.190521,-0.09526 0.273874,-0.119076 0.107169,-0.02382 0.214338,-0.03572 0.321506,-0.03572 0.166706,0.01191 0.309597,0.04763 0.44058,0.107168 0.07145,0.03572 0.142892,0.07145 0.178615,0.107168 0.04763,0.03572 0.08336,0.08336 0.130984,0.142892 0.03572,0.05954 0.07145,0.130983 0.09525,0.214336 0.02382,0.08336 0.03573,0.178615 0.03573,0.285783 v 1.071684 h 0.226245 v 0.523934 H 24.678381 V 20.18799 c 0,-0.09527 -0.02382,-0.178614 -0.07145,-0.238152 -0.04763,-0.05954 -0.107168,-0.107168 -0.166706,-0.130983 -0.05954,-0.02382 -0.142891,-0.04763 -0.226244,-0.03572 -0.08335,0.01191 -0.154799,0.02382 -0.226245,0.04763 -0.07145,0.03572 -0.119075,0.07145 -0.166706,0.130983 -0.04763,0.05954 -0.07145,0.130984 -0.07145,0.20243 v 0.988331 h 0.226245 v 0.523934 H 23.047039 V 20.18799 c 0,-0.09527 -0.02382,-0.178614 -0.07145,-0.238152 -0.04763,-0.05954 -0.107168,-0.107168 -0.166706,-0.130983 -0.07145,-0.02382 -0.142892,-0.03572 -0.226245,-0.03572 -0.08336,0 -0.154799,0.02382 -0.226244,0.05954 -0.07145,0.03572 -0.130984,0.08336 -0.166706,0.142891 -0.04763,0.05954 -0.07145,0.130983 -0.07145,0.214337 v 0.964516 h 0.238152 v 0.523935 h -0.928794 v -1.750418 c 0,-0.03572 -0.01191,-0.07145 -0.03572,-0.09526 -0.02382,-0.02382 -0.08335,-0.04763 -0.166707,-0.04763 v -0.547754 c 0.05954,-0.01191 0.130984,-0.03572 0.226245,-0.04763 0.09526,-0.01191 0.190522,-0.01191 0.285782,0 0.09527,0.01191 0.178614,0.04763 0.238152,0.107168 0.09526,0.05954 0.119076,0.154799 0.119076,0.285783 z"
   id="path49"
   style="fill:#ff6600;stroke-width:1" />
			<path
   class="st3"
   d="m 27.107531,19.211567 c 0.178615,0 0.321505,0.02382 0.452489,0.05954 0.130984,0.03572 0.226245,0.09525 0.309598,0.166706 0.08336,0.07145 0.154799,0.142892 0.202429,0.238153 0.04763,0.08336 0.09526,0.178613 0.119077,0.273874 0.05954,0.214338 0.07145,0.464396 0.03572,0.738272 H 26.60741 c 0,0.130983 0.02382,0.226244 0.08336,0.29769 0.05954,0.07145 0.119075,0.119076 0.190521,0.154799 0.08336,0.03572 0.166707,0.05954 0.261967,0.07145 0.09526,0 0.178615,0 0.25006,-0.01191 0.07145,-0.01191 0.130984,-0.02382 0.190522,-0.03572 0.05954,-0.01191 0.107168,-0.03572 0.166706,-0.07145 0.04763,-0.02382 0.107168,-0.05954 0.166706,-0.09526 l 0.238153,0.404859 c -0.154799,0.107168 -0.321505,0.178614 -0.50012,0.238152 -0.178613,0.04763 -0.369135,0.07145 -0.571564,0.07145 -0.190522,0 -0.357228,-0.03572 -0.50012,-0.107168 -0.142891,-0.07145 -0.273874,-0.166706 -0.369135,-0.273874 -0.09526,-0.107169 -0.178615,-0.25006 -0.226245,-0.392951 -0.04763,-0.142892 -0.08336,-0.297691 -0.08336,-0.452489 0,-0.154799 0.02382,-0.309598 0.08336,-0.464397 0.05954,-0.154798 0.130984,-0.285783 0.238152,-0.404858 0.107169,-0.119076 0.226244,-0.214337 0.381043,-0.29769 0.1548,-0.08336 0.309599,-0.107169 0.500119,-0.107169 z m 0.50012,1.071684 c 0,-0.154798 -0.04763,-0.273875 -0.130984,-0.369136 -0.08336,-0.09525 -0.202429,-0.14289 -0.321505,-0.14289 -0.178615,0 -0.309598,0.04763 -0.404859,0.130983 -0.09526,0.09526 -0.142891,0.214336 -0.142891,0.369135 h 1.000239 z"
   id="path51"
   style="fill:#ff6600;stroke-width:1" />
			<path
   class="st3"
   d="m 29.774835,21.67644 h -0.928793 v -1.738509 c 0,-0.03572 -0.01191,-0.07145 -0.03572,-0.107169 -0.02382,-0.03572 -0.08336,-0.04763 -0.166707,-0.04763 v -0.53584 c 0.08335,-0.02382 0.166707,-0.04763 0.261968,-0.04763 0.09526,0 0.190521,0 0.273874,0.02382 0.08336,0.02382 0.166706,0.05954 0.226244,0.130983 0.05954,0.05954 0.09526,0.154799 0.09526,0.261967 0.04763,-0.07145 0.09526,-0.130983 0.166706,-0.190521 0.05954,-0.04763 0.142892,-0.09526 0.238153,-0.130984 0.09526,-0.03572 0.214336,-0.05954 0.369135,-0.05954 0.166707,0.01191 0.309599,0.04763 0.440582,0.107168 0.08335,0.03572 0.142891,0.07145 0.178614,0.107169 0.04763,0.03572 0.08336,0.09526 0.119076,0.154798 0.03573,0.05954 0.07145,0.130984 0.09526,0.214337 0.02382,0.08336 0.03572,0.178615 0.03572,0.285783 v 1.059777 h 0.226244 v 0.523934 h -0.916875 v -1.488445 c 0,-0.09526 -0.02382,-0.178614 -0.07145,-0.238153 -0.04763,-0.05954 -0.107168,-0.119075 -0.166707,-0.14289 -0.07145,-0.03572 -0.14289,-0.04763 -0.214336,-0.03572 -0.08336,0 -0.154799,0.02382 -0.214337,0.05954 -0.07145,0.03572 -0.119076,0.08336 -0.166706,0.142891 -0.04763,0.05954 -0.07145,0.130983 -0.07145,0.226244 v 0.952609 h 0.226245 z"
   id="path53"
   style="fill:#ff6600;stroke-width:1" />
			<path
   class="st3"
   d="m 31.953926,18.913877 h -0.238153 v -0.523935 h 0.928794 v 0.857347 h 0.464396 v 0.523936 h -0.464396 v 1.226482 c 0,0.04763 0.01191,0.07145 0.03572,0.09526 0.02382,0.02382 0.04763,0.03572 0.08336,0.04763 0.03572,0.01191 0.07145,0.01191 0.119076,0.01191 v 0.523934 c -0.07145,0.02382 -0.154798,0.04763 -0.261968,0.05954 -0.107168,0.01191 -0.214336,0 -0.309597,-0.02382 -0.09526,-0.02382 -0.178614,-0.05954 -0.25006,-0.119075 -0.07145,-0.05954 -0.107168,-0.142892 -0.107168,-0.25006 z"
   id="path55"
   style="fill:#ff6600;stroke-width:1" />
			<path
   class="st3"
   d="m 34.680767,19.211567 c 0.178613,0 0.321505,0.02382 0.452489,0.05954 0.130984,0.03572 0.226244,0.09525 0.309597,0.166706 0.08336,0.07145 0.154799,0.142892 0.20243,0.238153 0.04763,0.08336 0.09526,0.178613 0.119075,0.273874 0.05954,0.214338 0.07145,0.464396 0.03572,0.738272 h -1.619434 c 0,0.130983 0.02382,0.226244 0.08336,0.29769 0.05954,0.07145 0.119076,0.119076 0.190522,0.154799 0.08336,0.03572 0.166706,0.05954 0.261967,0.07145 0.09526,0 0.178613,0 0.25006,-0.01191 0.07145,-0.01191 0.130984,-0.02382 0.190521,-0.03572 0.05954,-0.01191 0.107169,-0.03572 0.166707,-0.07145 0.04763,-0.02382 0.107168,-0.05954 0.166706,-0.09526 l 0.238152,0.404859 c -0.154799,0.107168 -0.321505,0.178614 -0.500119,0.238152 -0.178614,0.04763 -0.369136,0.07145 -0.571565,0.07145 -0.190522,0 -0.357228,-0.03572 -0.500119,-0.107168 -0.142892,-0.07145 -0.273876,-0.166706 -0.369136,-0.273874 -0.09526,-0.107169 -0.178614,-0.25006 -0.226245,-0.392951 -0.04763,-0.142892 -0.08335,-0.297691 -0.08335,-0.452489 0,-0.154799 0.02382,-0.309598 0.08335,-0.464397 0.05954,-0.154798 0.130984,-0.285783 0.238153,-0.404858 0.107168,-0.119076 0.226244,-0.214337 0.381042,-0.29769 0.154799,-0.08336 0.309598,-0.107169 0.50012,-0.107169 z m 0.500119,1.071684 c 0,-0.154798 -0.04763,-0.273875 -0.130984,-0.369136 -0.08336,-0.09525 -0.202429,-0.14289 -0.321505,-0.14289 -0.178614,0 -0.309597,0.04763 -0.404858,0.130983 -0.09527,0.09526 -0.142892,0.214336 -0.142892,0.369135 h 1.000239 z"
   id="path57"
   style="fill:#ff6600;stroke-width:1" />
			
			
			
			
			
			
			
			
		</g>
	</g>
</g>
<g
   id="Cumplido"
   class="st0">
	<g
   class="st1"
   id="g100">
		<path
   class="st4"
   d="M32.58,14.49C30.46,9.64,25.63,6.26,20,6.26S9.54,9.64,7.42,14.49H1.84v11.03h5.58    c2.12,4.84,6.96,8.23,12.58,8.23s10.46-3.38,12.58-8.23h5.58V14.49H32.58z M20,7.95c4.66,0,8.71,2.66,10.71,6.54h-1.47    c-1.88-3.14-5.31-5.25-9.24-5.25s-7.36,2.11-9.24,5.25H9.29C11.29,10.61,15.34,7.95,20,7.95z M22.81,14.49    c-0.75-0.86-2.22-1.7-5.1-1.48v1.48h-4.85c1.65-2.13,4.23-3.51,7.14-3.51s5.49,1.37,7.14,3.51H22.81z M20,10.13    c-3.4,0-6.4,1.73-8.18,4.35h-0.73c1.85-2.98,5.15-4.97,8.91-4.97s7.06,1.99,8.91,4.97h-0.73C26.4,11.86,23.4,10.13,20,10.13z     M20,32.05c-4.66,0-8.71-2.66-10.71-6.54h1.47c1.88,3.14,5.31,5.25,9.24,5.25s7.36-2.11,9.24-5.25h1.47    C28.71,29.39,24.66,32.05,20,32.05z M17.19,25.51c0.75,0.86,2.22,1.7,5.1,1.48v-1.48h4.85c-1.65,2.13-4.23,3.51-7.14,3.51    s-5.49-1.37-7.14-3.51H17.19z M20,29.87c3.4,0,6.4-1.73,8.18-4.35h0.73c-1.85,2.98-5.15,4.97-8.91,4.97s-7.06-1.99-8.91-4.97h0.73    C13.6,28.14,16.6,29.87,20,29.87z M37.04,24.39H2.96v-8.78h34.08V24.39z"
   id="path80" />
		<g
   id="g98">
			<path
   class="st4"
   d="M8.38,21.6c-0.26,0-0.5-0.03-0.73-0.08c-0.23-0.05-0.44-0.14-0.64-0.26c-0.19-0.12-0.36-0.27-0.5-0.44     s-0.26-0.38-0.34-0.62c-0.05-0.15-0.09-0.32-0.11-0.5c-0.02-0.18-0.03-0.37-0.02-0.55c0.01-0.19,0.03-0.37,0.07-0.55     s0.09-0.35,0.16-0.49c0.09-0.19,0.2-0.35,0.34-0.49c0.13-0.14,0.28-0.26,0.44-0.35c0.16-0.09,0.34-0.16,0.52-0.21     s0.38-0.07,0.58-0.07c0.29,0,0.57,0.02,0.85,0.07c0.28,0.05,0.55,0.13,0.8,0.23v0.67H9.18v-0.2c-0.37-0.06-0.7-0.08-0.98-0.04     c-0.21,0.03-0.4,0.09-0.56,0.17c-0.16,0.09-0.29,0.2-0.4,0.33c-0.11,0.13-0.19,0.29-0.24,0.46c-0.05,0.17-0.08,0.36-0.08,0.56     c0,0.2,0.03,0.4,0.1,0.61c0.07,0.2,0.17,0.39,0.29,0.55c0.13,0.16,0.28,0.3,0.46,0.4c0.18,0.1,0.38,0.15,0.61,0.15h0.8v-0.21H9.8     v0.86H8.38z"
   id="path82" />
			<path
   class="st4"
   d="M13.4,18.6v2.16c0,0.04,0.02,0.09,0.05,0.13c0.03,0.04,0.1,0.06,0.21,0.06v0.65     c-0.1,0.03-0.2,0.05-0.32,0.07c-0.12,0.01-0.23,0-0.34-0.02c-0.11-0.03-0.2-0.08-0.27-0.16c-0.07-0.08-0.11-0.19-0.11-0.33     c-0.05,0.1-0.12,0.18-0.21,0.25c-0.08,0.07-0.18,0.13-0.3,0.18c-0.12,0.05-0.27,0.07-0.46,0.07c-0.2-0.02-0.38-0.07-0.54-0.15     c-0.1-0.04-0.18-0.09-0.23-0.14c-0.05-0.05-0.1-0.12-0.15-0.19s-0.09-0.16-0.12-0.27c-0.03-0.1-0.04-0.22-0.04-0.35v-1.31h-0.28     V18.6h1.14v1.83c0,0.12,0.03,0.22,0.08,0.3c0.06,0.08,0.13,0.14,0.21,0.17c0.08,0.04,0.17,0.06,0.27,0.05     c0.1,0,0.19-0.03,0.27-0.07s0.15-0.1,0.21-0.18c0.06-0.08,0.08-0.17,0.08-0.28v-1.18h-0.28V18.6H13.4z"
   id="path84" />
			<path
   class="st4"
   d="M15.22,19.02c0.05-0.08,0.12-0.16,0.21-0.23c0.08-0.06,0.18-0.12,0.3-0.16c0.12-0.04,0.27-0.07,0.46-0.07     c0.12,0,0.25,0.02,0.37,0.06c0.11,0.03,0.21,0.07,0.32,0.14s0.19,0.16,0.27,0.28c0.08-0.13,0.17-0.22,0.29-0.29     c0.12-0.07,0.23-0.11,0.35-0.14c0.13-0.03,0.26-0.05,0.4-0.05c0.2,0.01,0.39,0.05,0.55,0.13c0.1,0.04,0.17,0.08,0.23,0.13     s0.11,0.11,0.16,0.18c0.05,0.07,0.09,0.16,0.12,0.26c0.03,0.1,0.04,0.22,0.04,0.35v1.33h0.28v0.65h-1.14v-1.84     c0-0.12-0.03-0.22-0.08-0.29c-0.06-0.08-0.13-0.13-0.21-0.17c-0.08-0.04-0.17-0.05-0.27-0.05c-0.1,0-0.19,0.03-0.27,0.06     c-0.08,0.04-0.15,0.09-0.21,0.16c-0.06,0.07-0.08,0.16-0.08,0.25v1.22h0.29v0.65h-1.15v-1.84c0-0.12-0.03-0.22-0.08-0.3     c-0.06-0.08-0.13-0.13-0.21-0.17c-0.09-0.03-0.18-0.05-0.28-0.04s-0.19,0.03-0.28,0.07s-0.16,0.1-0.21,0.17     c-0.06,0.07-0.08,0.16-0.08,0.27v1.19h0.29v0.65h-1.15v-2.17c0-0.04-0.02-0.08-0.05-0.12c-0.03-0.04-0.1-0.06-0.21-0.06V18.6     c0.07-0.02,0.17-0.04,0.29-0.06c0.12-0.02,0.23-0.02,0.35,0c0.12,0.02,0.22,0.06,0.3,0.13C15.18,18.74,15.22,18.86,15.22,19.02z"
   id="path86" />
			<path
   class="st4"
   d="M21.98,18.55c0.2,0.02,0.39,0.06,0.55,0.14c0.1,0.04,0.17,0.09,0.23,0.14c0.06,0.05,0.11,0.11,0.15,0.19     c0.05,0.07,0.08,0.16,0.12,0.26s0.05,0.22,0.05,0.35v0.95c0,0.13-0.02,0.25-0.05,0.35c-0.03,0.1-0.07,0.19-0.12,0.27     c-0.05,0.07-0.11,0.14-0.17,0.19c-0.07,0.05-0.13,0.09-0.2,0.12c-0.16,0.08-0.34,0.13-0.54,0.14c-0.12,0-0.23-0.01-0.33-0.04     c-0.1-0.03-0.18-0.06-0.26-0.1c-0.08-0.04-0.14-0.08-0.19-0.12c-0.05-0.04-0.09-0.08-0.12-0.11v1.8h-1.11v-0.65h0.25v-2.98     c0-0.04-0.02-0.09-0.04-0.14c-0.03-0.05-0.1-0.08-0.21-0.08V18.6c0.08-0.03,0.19-0.05,0.3-0.06c0.12-0.01,0.23-0.01,0.34,0.01     c0.11,0.02,0.21,0.07,0.29,0.14c0.08,0.07,0.12,0.19,0.12,0.33c0-0.02,0.02-0.06,0.06-0.11c0.04-0.05,0.1-0.1,0.17-0.16     c0.08-0.05,0.18-0.1,0.3-0.14S21.82,18.55,21.98,18.55z M21.1,20.42c0,0.16,0.06,0.28,0.17,0.37c0.11,0.09,0.24,0.14,0.38,0.15     c0.14,0.01,0.27-0.03,0.38-0.11s0.18-0.22,0.2-0.41v-0.65c0-0.12-0.03-0.22-0.08-0.3c-0.06-0.08-0.12-0.13-0.21-0.17     c-0.08-0.04-0.17-0.05-0.27-0.04c-0.1,0.01-0.19,0.03-0.27,0.07s-0.15,0.1-0.21,0.17c-0.06,0.07-0.08,0.17-0.08,0.27V20.42z"
   id="path88" />
			<path
   class="st4"
   d="M25.01,21.6h-1.14v-3.66c0-0.05-0.02-0.08-0.04-0.11c-0.03-0.03-0.06-0.04-0.09-0.06     c-0.04-0.02-0.09-0.02-0.14-0.02V17.1c0.09-0.04,0.2-0.06,0.33-0.07c0.13-0.01,0.25,0,0.38,0.02c0.12,0.03,0.22,0.08,0.31,0.15     c0.08,0.07,0.13,0.18,0.13,0.31v3.44h0.28V21.6z"
   id="path90" />
			<path
   class="st4"
   d="M25.8,19.24h-0.28V18.6h1.14v2.17c0,0.05,0.02,0.09,0.05,0.13c0.03,0.04,0.11,0.06,0.23,0.06v0.65     c-0.09,0.04-0.2,0.06-0.33,0.07s-0.25,0-0.38-0.02c-0.12-0.03-0.22-0.08-0.31-0.15c-0.09-0.07-0.13-0.18-0.13-0.31V19.24z      M26.66,17.52v0.65h-0.65v-0.65H26.66z"
   id="path92" />
			<path
   class="st4"
   d="M30.53,21.6c-0.08,0.04-0.17,0.06-0.29,0.07c-0.12,0.01-0.23,0-0.34-0.03c-0.11-0.03-0.21-0.08-0.29-0.15     c-0.08-0.07-0.12-0.16-0.12-0.28c0,0.02-0.02,0.05-0.06,0.1c-0.04,0.05-0.1,0.1-0.17,0.15c-0.08,0.05-0.18,0.1-0.3,0.14     c-0.12,0.04-0.26,0.06-0.43,0.06c-0.2-0.01-0.38-0.06-0.54-0.13c-0.1-0.04-0.18-0.08-0.23-0.13c-0.05-0.05-0.11-0.11-0.15-0.18     s-0.09-0.16-0.12-0.26c-0.03-0.1-0.04-0.22-0.04-0.35v-0.98c0-0.13,0.02-0.25,0.04-0.35c0.03-0.1,0.07-0.19,0.12-0.26     c0.05-0.08,0.11-0.14,0.17-0.19c0.06-0.05,0.13-0.09,0.2-0.13c0.16-0.08,0.33-0.12,0.53-0.13c0.13,0,0.24,0.01,0.34,0.04     c0.1,0.03,0.18,0.06,0.26,0.09c0.07,0.04,0.14,0.07,0.19,0.12s0.09,0.08,0.12,0.12v-1.18h-0.28V17.1h1.14v3.67     c0,0.04,0.02,0.08,0.05,0.12c0.03,0.04,0.1,0.06,0.2,0.06V21.6z M29.42,19.77c0-0.11-0.03-0.2-0.08-0.28     c-0.06-0.08-0.12-0.14-0.21-0.18s-0.17-0.06-0.27-0.07c-0.1,0-0.18,0.01-0.27,0.04c-0.08,0.03-0.15,0.09-0.21,0.17     c-0.06,0.08-0.08,0.18-0.08,0.3v0.68c0,0.12,0.03,0.22,0.08,0.29c0.06,0.08,0.12,0.13,0.21,0.17s0.17,0.05,0.27,0.05     c0.1,0,0.19-0.03,0.27-0.07s0.15-0.1,0.21-0.17c0.06-0.07,0.08-0.16,0.08-0.27V19.77z"
   id="path94" />
			<path
   class="st4"
   d="M32.48,18.55c0.21,0,0.41,0.04,0.6,0.11c0.19,0.08,0.36,0.18,0.5,0.32c0.14,0.14,0.26,0.3,0.34,0.49     c0.08,0.19,0.12,0.4,0.12,0.63c0,0.33-0.08,0.61-0.23,0.84c-0.16,0.23-0.35,0.4-0.58,0.52c-0.23,0.12-0.48,0.18-0.75,0.19     c-0.27,0.01-0.52-0.05-0.75-0.16c-0.23-0.11-0.42-0.28-0.58-0.51c-0.15-0.23-0.23-0.52-0.23-0.88c0-0.2,0.04-0.4,0.11-0.59     c0.07-0.19,0.18-0.35,0.31-0.5c0.14-0.14,0.3-0.26,0.49-0.34C32.03,18.6,32.24,18.55,32.48,18.55z M31.79,20.11     c0,0.26,0.07,0.47,0.2,0.62c0.13,0.15,0.3,0.23,0.51,0.23c0.2,0,0.37-0.08,0.5-0.23c0.13-0.15,0.2-0.36,0.2-0.63     c0-0.14-0.02-0.26-0.06-0.37s-0.09-0.19-0.16-0.26c-0.07-0.07-0.14-0.13-0.23-0.16c-0.09-0.04-0.17-0.05-0.27-0.05     c-0.09,0-0.18,0.02-0.26,0.05c-0.08,0.04-0.16,0.09-0.22,0.16c-0.06,0.07-0.12,0.16-0.15,0.26S31.79,19.97,31.79,20.11z"
   id="path96" />
		</g>
	</g>
</g>
</svg>
