<?xml version="1.0" standalone="no"?>
<!DOCTYPE svg PUBLIC "-//W3C//DTD SVG 20010904//EN"
 "http://www.w3.org/TR/2001/REC-SVG-20010904/DTD/svg10.dtd">
<svg version="1.0" xmlns="http://www.w3.org/2000/svg"
 width="600.000000pt" height="600.000000pt" viewBox="0 0 600.000000 600.000000"
 preserveAspectRatio="xMidYMid meet">
<metadata>
Created by potrace 1.11, written by Peter Selinger 2001-2013
</metadata>
<g transform="translate(0.000000,600.000000) scale(0.100000,-0.100000)"
fill="#000000" stroke="none">
<path d="M2360 5551 l-65 -6 -3 -339 -2 -339 32 7 c217 46 391 60 670 53 190
-4 260 -9 378 -30 368 -66 664 -189 933 -388 42 -32 77 -53 77 -47 0 18 -31
132 -50 185 -180 491 -667 813 -1350 893 -111 13 -526 21 -620 11z"/>
<path d="M2838 4489 c-221 -15 -427 -69 -618 -160 -190 -90 -307 -173 -453
-317 -340 -334 -527 -798 -527 -1303 0 -504 128 -872 419 -1206 508 -581 1416
-732 2166 -358 401 201 721 564 854 973 120 367 118 837 -6 1202 -226 668
-804 1111 -1527 1170 -140 11 -149 11 -308 -1z m437 -698 c312 -83 557 -315
675 -640 42 -114 39 -121 -22 -66 -127 114 -304 151 -478 99 l-50 -15 16 -31
c26 -50 16 -147 -21 -200 -44 -61 -105 -90 -180 -85 -33 2 -70 7 -81 11 -20 7
-23 2 -40 -66 -24 -95 -24 -267 0 -358 74 -287 284 -438 557 -401 47 6 112 20
144 31 32 11 60 19 62 17 6 -7 -62 -102 -116 -160 -114 -123 -281 -223 -446
-267 -102 -28 -358 -39 -471 -20 -363 58 -651 319 -772 700 -41 129 -56 231
-55 385 2 346 119 647 329 846 135 127 312 211 509 242 17 3 104 4 195 2 129
-2 182 -7 245 -24z"/>
</g>
</svg>
