<?xml version="1.0" encoding="utf-8"?>
<!-- Generator: Adobe Illustrator 23.1.1, SVG Export Plug-In . SVG Version: 6.00 Build 0)  -->
<svg version="1.1" id="Capa_1" xmlns="http://www.w3.org/2000/svg" xmlns:xlink="http://www.w3.org/1999/xlink" x="0px" y="0px"
	 viewBox="0 0 841.89 595.28" style="enable-background:new 0 0 841.89 595.28;" xml:space="preserve">
<g fill="white">
	<path d="M361.04,367.06c0,9.16-2.23,16.31-6.66,21.45c-4.44,5.13-9.86,8.67-16.24,10.62
		c-6.39,1.94-13.33,2.5-20.82,1.67c-7.5-0.83-14.44-2.5-20.82-5v-37.9c3.6,0,6.94-0.56,9.99-1.67c2.5-0.83,4.72-2.15,6.66-3.96
		s2.92-4.37,2.92-7.7V226.35H296.5v-37.9h64.55L361.04,367.06L361.04,367.06z M361.04,121.69v37.06h-64.55v-37.06H361.04z"/>
	<path d="M441.23,399.87c-7.5,0.83-14.51,0.55-21.03-0.83c-6.53-1.39-12.08-4.09-16.66-8.12
		c-4.58-4.02-6.87-9.92-6.87-17.7v-73.09V255.1h44.97v90.64L441.23,399.87z M441.65,226.23h-44.97v-37.77h44.97V226.23z"/>
	<path d="M522.46,121.69v66.67h39.09v37.9h-39.09v119.01c0,3.61,1.04,6.25,3.12,7.91c2.08,1.67,4.37,2.92,6.87,3.75
		c3.05,0.83,6.38,1.11,9.99,0.83v39.19c-5.87,2.5-12.58,3.88-20.12,4.16c-7.55,0.27-14.67-0.62-21.37-2.71
		c-6.7-2.08-12.36-5.55-16.97-10.41c-4.61-4.85-6.92-11.45-6.92-19.78V121.69H522.46z"/>
	<g>
		<path d="M630.2,161.72c0,0,72.85-19.06,126.49,25.44c0,0-6.8-75.55-126.49-66.63V161.72z"/>
	</g>
	<g>
		<path d="M266.04,248.59c-5.56-13.18-13.19-24.57-22.9-34.15c-9.72-9.58-21.1-17-34.15-22.28
			c-13.05-5.27-26.93-7.91-41.64-7.91c-16.66,0-31.58,2.92-44.77,8.75s-24.36,13.74-33.52,23.74c-9.16,9.99-16.24,21.52-21.24,34.56
			c-5,13.05-7.5,26.65-7.5,40.81c0,24.71,5.27,45.05,15.82,61.01c10.55,15.97,23.74,27.84,39.56,35.61
			c15.82,7.77,32.96,11.45,51.43,11.04c18.46-0.42,35.61-4.72,51.43-12.91s29.08-20.26,39.77-36.23
			c10.68-15.96,16.03-35.46,16.03-58.51C274.37,276.28,271.59,261.78,266.04,248.59z M214.2,337.71
			c-5.14,6.25-11.6,11.24-19.36,14.99c-7.77,3.75-16.94,5.62-27.48,5.62c-9.99,0-18.81-1.87-26.44-5.62
			c-7.64-3.75-14.02-8.75-19.16-14.99c-5.14-6.25-9.03-13.25-11.66-21.03c-2.64-7.77-3.96-15.82-3.96-24.15
			c0-8.6,1.25-17,3.75-25.19s6.25-15.41,11.24-21.65c5-6.25,11.38-11.24,19.16-14.99c7.77-3.75,16.79-5.62,27.07-5.62
			c9.99,0,18.88,1.87,26.65,5.62c7.77,3.75,14.22,8.75,19.36,14.99c5.13,6.25,9.09,13.4,11.87,21.45c0.7,2.03,1.31,4.07,1.83,6.14
			c-5.1-6.02-16.48-15.12-35.62-8.62c1.24,1.98,1.98,4.31,1.98,6.82c0,7.08-5.74,12.83-12.83,12.83c-2.35,0-4.54-0.64-6.43-1.74
			c-8.81,24.55,4.07,63.12,45.47,47.41C218.02,332.67,216.21,335.25,214.2,337.71z"/>
		<path d="M772.28,248.59c-5.56-13.18-13.19-24.57-22.9-34.15c-9.72-9.58-21.1-17-34.15-22.28
			c-13.05-5.27-26.93-7.91-41.64-7.91c-16.66,0-31.58,2.92-44.77,8.75s-24.36,13.74-33.52,23.74c-9.16,9.99-16.24,21.52-21.24,34.56
			c-5,13.05-7.5,26.65-7.5,40.81c0,24.71,5.27,45.05,15.82,61.01c10.55,15.97,23.74,27.84,39.56,35.61
			c15.82,7.77,32.96,11.45,51.43,11.04c18.46-0.42,35.61-4.72,51.43-12.91s29.08-20.26,39.77-36.23
			c10.68-15.96,16.03-35.46,16.03-58.51C780.6,276.28,777.83,261.78,772.28,248.59z M720.43,337.71
			c-5.14,6.25-11.6,11.24-19.36,14.99c-7.77,3.75-16.94,5.62-27.48,5.62c-9.99,0-18.81-1.87-26.44-5.62
			c-7.64-3.75-14.02-8.75-19.16-14.99c-5.14-6.25-9.03-13.25-11.66-21.03c-2.64-7.77-3.96-15.82-3.96-24.15
			c0-8.6,1.25-17,3.75-25.19s6.25-15.41,11.24-21.65c5-6.25,11.38-11.24,19.16-14.99c7.77-3.75,16.79-5.62,27.07-5.62
			c9.99,0,18.88,1.87,26.65,5.62s14.22,8.75,19.36,14.99c5.13,6.25,9.09,13.4,11.87,21.45c0.7,2.03,1.31,4.07,1.83,6.14
			c-5.1-6.02-16.48-15.12-35.62-8.62c1.24,1.98,1.98,4.31,1.98,6.82c0,7.08-5.74,12.83-12.83,12.83c-2.35,0-4.54-0.64-6.43-1.74
			c-8.81,24.55,4.07,63.12,45.47,47.41C724.25,332.67,722.45,335.25,720.43,337.71z"/>
		<path d="M124.38,161.72c0,0,72.85-19.06,126.49,25.44c0,0-6.8-75.55-126.49-66.63
			C124.38,120.53,124.38,161.72,124.38,161.72z"/>
	</g>
	<g>
		<path d="M61.58,462.73c0-1.61,0.21-3.16,0.64-4.63c0.42-1.48,1.08-2.78,1.97-3.92c0.89-1.14,2.03-2.04,3.42-2.72
			c1.39-0.68,3.04-1.02,4.95-1.02c1.89,0,3.53,0.31,4.92,0.94s2.54,1.49,3.46,2.6c0.91,1.1,1.59,2.42,2.04,3.95
			c0.45,1.53,0.67,3.2,0.67,5c0,1.64-0.22,3.18-0.67,4.65c-0.45,1.46-1.12,2.75-2.02,3.87c-0.9,1.11-2.04,2-3.42,2.64
			c-1.38,0.65-2.99,0.97-4.84,0.97h-0.13c-1.85,0-3.46-0.3-4.82-0.91c-1.37-0.6-2.51-1.45-3.42-2.55c-0.91-1.09-1.6-2.39-2.05-3.9
			C61.81,466.19,61.58,464.54,61.58,462.73z M72.56,453.75c-1.17,0-2.21,0.25-3.14,0.76c-0.92,0.51-1.71,1.18-2.37,2.02
			s-1.16,1.8-1.51,2.88s-0.53,2.19-0.53,3.31c0,1.02,0.16,2.06,0.49,3.14c0.33,1.07,0.82,2.05,1.47,2.95
			c0.65,0.89,1.44,1.62,2.37,2.2s2.01,0.86,3.22,0.86h0.16c1.15-0.04,2.18-0.33,3.1-0.86s1.71-1.22,2.36-2.07s1.15-1.81,1.5-2.88
			s0.53-2.17,0.53-3.3c0-1.08-0.16-2.16-0.49-3.23c-0.33-1.07-0.82-2.04-1.47-2.9s-1.44-1.55-2.39-2.09
			C74.92,454.02,73.82,453.75,72.56,453.75z"/>
		<path d="M103.29,469.42c0,0.7-0.08,1.32-0.24,1.85c-0.16,0.53-0.37,1-0.62,1.4s-0.55,0.74-0.88,1
			c-0.33,0.27-0.66,0.48-1,0.65c-0.83,0.42-1.75,0.67-2.77,0.73c-0.93,0-1.76-0.11-2.47-0.33s-1.3-0.48-1.77-0.76
			c-0.47-0.29-0.82-0.57-1.05-0.86s-0.35-0.48-0.35-0.59c0,0.53-0.13,0.99-0.38,1.37s-0.59,0.67-1,0.88c-0.41,0.2-0.89,0.3-1.42,0.3
			s-1.07-0.11-1.62-0.32v-2.9c0.57,0,0.94-0.14,1.1-0.43c0.16-0.29,0.25-0.55,0.27-0.78v-16.88h-1.53v-2.9h4.97v9.74
			c0.49-0.59,1.09-1.06,1.81-1.39s1.48-0.53,2.28-0.6c0.8-0.07,1.59-0.01,2.39,0.19s1.51,0.53,2.15,0.99s1.15,1.06,1.54,1.8
			s0.59,1.64,0.59,2.68V469.42z M99.79,464.42c0-0.66-0.18-1.19-0.54-1.61c-0.36-0.41-0.81-0.71-1.34-0.88s-1.11-0.24-1.75-0.21
			s-1.22,0.16-1.75,0.38s-0.98,0.53-1.34,0.92c-0.36,0.39-0.54,0.85-0.54,1.39v4.65c0,0.53,0.18,1,0.54,1.4s0.81,0.72,1.34,0.96
			c0.53,0.23,1.11,0.37,1.75,0.41s1.22-0.03,1.75-0.21c0.53-0.18,0.98-0.48,1.34-0.91c0.36-0.42,0.54-0.98,0.54-1.66V464.42z"/>
		<path d="M110.01,469.74c0,0.51,0.1,0.92,0.29,1.24s0.44,0.57,0.73,0.75c0.3,0.18,0.64,0.3,1.04,0.35
			c0.39,0.05,0.78,0.08,1.16,0.08c0.34,0,0.69-0.03,1.04-0.1c0.35-0.06,0.66-0.16,0.94-0.3s0.5-0.32,0.67-0.54
			c0.17-0.22,0.25-0.49,0.25-0.81c0-0.49-0.22-0.89-0.65-1.21s-0.97-0.6-1.61-0.84s-1.34-0.49-2.1-0.75
			c-0.76-0.25-1.46-0.57-2.1-0.94s-1.17-0.83-1.61-1.37s-0.65-1.24-0.65-2.09c0-0.83,0.18-1.53,0.53-2.12
			c0.35-0.58,0.81-1.06,1.37-1.43c0.56-0.37,1.19-0.64,1.89-0.81s1.41-0.25,2.13-0.25c0.57,0,1.19,0.06,1.86,0.18
			s1.28,0.31,1.83,0.59c0.55,0.28,1.01,0.63,1.39,1.05c0.37,0.42,0.56,0.96,0.56,1.59v1.82h-3.45c0-0.79-0.22-1.37-0.65-1.75
			c-0.44-0.38-0.99-0.57-1.67-0.57c-0.64,0-1.11,0.09-1.43,0.27s-0.55,0.38-0.7,0.59c-0.17,0.25-0.25,0.54-0.25,0.86
			c0,0.51,0.22,0.92,0.65,1.23c0.43,0.31,0.97,0.58,1.61,0.81s1.34,0.47,2.1,0.7s1.46,0.53,2.1,0.89s1.17,0.82,1.61,1.37
			s0.65,1.26,0.65,2.13c0,0.89-0.19,1.64-0.56,2.25c-0.37,0.6-0.85,1.09-1.45,1.45c-0.59,0.36-1.27,0.62-2.02,0.78
			s-1.52,0.24-2.31,0.24c-0.57,0-1.23-0.05-1.97-0.14c-0.74-0.1-1.45-0.28-2.12-0.56c-0.67-0.28-1.24-0.65-1.72-1.13
			s-0.75-1.1-0.81-1.86v-1.62h3.43L110.01,469.74L110.01,469.74z"/>
		<path d="M130.68,458.59c1.04,0,1.94,0.13,2.69,0.4s1.39,0.62,1.89,1.07c0.51,0.45,0.92,0.95,1.23,1.51
			s0.55,1.14,0.72,1.74c0.38,1.38,0.47,2.95,0.25,4.71h-11.14c0.02,0.57,0.15,1.1,0.38,1.58c0.23,0.48,0.55,0.88,0.94,1.21
			s0.84,0.59,1.35,0.78c0.51,0.19,1.05,0.29,1.62,0.29s1.08-0.05,1.51-0.14c0.44-0.1,0.83-0.22,1.19-0.37s0.7-0.32,1.02-0.51
			c0.32-0.19,0.65-0.39,0.99-0.6l1.62,2.52c-1.02,0.68-2.15,1.23-3.39,1.66s-2.51,0.64-3.81,0.64c-0.85,0-1.59-0.1-2.23-0.3
			c-0.64-0.2-1.19-0.47-1.67-0.8c-0.48-0.33-0.88-0.7-1.21-1.11s-0.61-0.84-0.84-1.29c-0.51-1.02-0.81-2.19-0.89-3.5
			c-0.13-1.76,0.05-3.34,0.54-4.75c0.23-0.83,0.53-1.49,0.88-1.97c0.35-0.49,0.81-0.93,1.37-1.34c0.56-0.4,1.25-0.74,2.07-1
			C128.59,458.72,129.56,458.59,130.68,458.59z M134.25,465.5c0.06-0.7-0.01-1.33-0.22-1.88c-0.17-0.51-0.5-0.95-0.99-1.32
			s-1.23-0.56-2.23-0.56c-1.02,0-1.83,0.2-2.44,0.59c-0.6,0.39-1.06,0.82-1.35,1.29c-0.38,0.55-0.64,1.18-0.76,1.88H134.25z"/>
		<path d="M140.33,458.81c0.49-0.17,0.99-0.28,1.5-0.33c0.51-0.05,0.97,0,1.39,0.14s0.77,0.42,1.07,0.81
			s0.48,0.95,0.54,1.67c0.32-0.47,0.73-0.89,1.24-1.27c0.45-0.34,1-0.63,1.67-0.88s1.49-0.37,2.47-0.37c0.15,0,0.3,0,0.45,0
			c0.15,0.02,0.31,0.05,0.48,0.08c0.17,0.03,0.35,0.08,0.54,0.14v2.9c-1.21-0.04-2.29,0.08-3.25,0.38
			c-0.59,0.15-1.06,0.33-1.39,0.56c-0.33,0.22-0.64,0.5-0.92,0.84c-0.29,0.34-0.52,0.75-0.7,1.24s-0.27,1.06-0.27,1.72v5.41h1.56
			v2.87h-5v-12.07c-0.02-0.21-0.11-0.42-0.27-0.64c-0.16-0.21-0.53-0.32-1.1-0.32L140.33,458.81L140.33,458.81z"/>
		<path d="M168.32,461.71h-1.5v-2.9h4.94v10.76c0,1.02-0.19,1.87-0.57,2.56c-0.38,0.69-0.91,1.25-1.58,1.69
			s-1.46,0.75-2.37,0.94c-0.91,0.19-1.9,0.29-2.96,0.29c-1.08,0-2.08-0.1-2.98-0.29c-0.9-0.19-1.68-0.5-2.34-0.94
			c-0.66-0.43-1.17-1-1.54-1.69s-0.56-1.54-0.56-2.56v-6.94c0-0.17-0.05-0.33-0.16-0.48c-0.11-0.11-0.26-0.21-0.46-0.3
			c-0.2-0.1-0.49-0.14-0.88-0.14v-2.9c0.49-0.21,1.02-0.33,1.61-0.37c0.58-0.03,1.12,0.04,1.61,0.21c0.49,0.17,0.9,0.45,1.23,0.83
			s0.49,0.89,0.49,1.53V469c0,0.62,0.2,1.14,0.59,1.56s0.89,0.74,1.48,0.96c0.59,0.21,1.24,0.32,1.94,0.33s1.35-0.09,1.94-0.3
			c0.59-0.21,1.09-0.53,1.48-0.96c0.39-0.42,0.59-0.96,0.59-1.59L168.32,461.71L168.32,461.71z"/>
		<path d="M180.58,475.06c-1.02-0.08-1.93-0.35-2.74-0.8c-0.47-0.21-0.84-0.45-1.13-0.72
			c-0.29-0.27-0.55-0.59-0.78-0.99c-0.23-0.39-0.43-0.86-0.59-1.4s-0.24-1.16-0.24-1.86v-5.06c0-0.7,0.08-1.32,0.24-1.85
			s0.37-1,0.62-1.4s0.54-0.74,0.86-1c0.32-0.27,0.65-0.49,0.99-0.69c0.81-0.4,1.71-0.64,2.71-0.7c0.89,0,1.67,0.07,2.34,0.21
			s1.24,0.31,1.7,0.51c0.47,0.2,0.85,0.41,1.15,0.64c0.3,0.22,0.52,0.42,0.67,0.59v-1.72h4.84v2.9h-1.4v9.08
			c0,0.23,0.06,0.47,0.19,0.72c0.13,0.24,0.48,0.37,1.05,0.37v2.87c-0.45,0.21-0.94,0.34-1.48,0.4c-0.54,0.05-1.05,0-1.53-0.14
			c-0.48-0.15-0.88-0.42-1.19-0.81c-0.32-0.39-0.48-0.93-0.48-1.61c0,0.11-0.14,0.3-0.41,0.57c-0.28,0.28-0.67,0.56-1.18,0.84
			c-0.51,0.29-1.12,0.54-1.83,0.75C182.25,474.97,181.45,475.06,180.58,475.06z M186.38,465.15c0-0.68-0.19-1.27-0.57-1.77
			s-0.87-0.89-1.45-1.16c-0.58-0.28-1.22-0.44-1.9-0.48s-1.31,0.05-1.89,0.27s-1.07,0.59-1.45,1.11c-0.38,0.52-0.57,1.19-0.57,2.02
			v3.47c0,0.76,0.19,1.39,0.57,1.88s0.87,0.85,1.45,1.08s1.21,0.33,1.89,0.3s1.31-0.18,1.9-0.43c0.58-0.25,1.07-0.62,1.45-1.1
			c0.38-0.48,0.57-1.06,0.57-1.74V465.15z"/>
		<path d="M196,456.04h-1.53v-2.9h5v5.67h3.03v2.9h-3.03v9.2c0,0.28,0.08,0.48,0.24,0.6s0.33,0.22,0.53,0.29
			c0.23,0.06,0.49,0.08,0.76,0.06v2.87c-0.45,0.19-0.96,0.3-1.54,0.32c-0.58,0.02-1.12-0.05-1.63-0.21c-0.51-0.16-0.95-0.42-1.3-0.8
			c-0.35-0.37-0.53-0.88-0.53-1.51V456.04z"/>
		<path d="M212.81,458.59c1.12,0,2.19,0.2,3.18,0.61c1,0.4,1.87,0.97,2.61,1.7s1.33,1.6,1.75,2.61s0.64,2.12,0.64,3.33
			c0,1.76-0.41,3.25-1.23,4.47c-0.82,1.22-1.83,2.14-3.04,2.77c-1.21,0.63-2.52,0.96-3.93,0.99c-1.41,0.03-2.72-0.25-3.93-0.84
			c-1.21-0.59-2.22-1.5-3.03-2.72s-1.21-2.78-1.21-4.67c0-1.08,0.19-2.12,0.57-3.12s0.92-1.88,1.62-2.64s1.55-1.37,2.56-1.82
			C210.4,458.81,211.54,458.59,212.81,458.59z M212.81,471.9c0.81,0,1.51-0.14,2.1-0.43c0.59-0.29,1.09-0.67,1.48-1.15
			s0.69-1.02,0.88-1.62s0.29-1.23,0.29-1.86c0-0.66-0.11-1.29-0.32-1.91s-0.52-1.16-0.91-1.64s-0.89-0.86-1.48-1.15
			s-1.27-0.43-2.04-0.43c-0.79,0-1.48,0.14-2.07,0.43c-0.59,0.29-1.08,0.67-1.46,1.15s-0.67,1.03-0.86,1.66s-0.29,1.27-0.29,1.93
			c0,0.64,0.1,1.25,0.3,1.85c0.2,0.59,0.5,1.13,0.89,1.61s0.88,0.86,1.46,1.15C211.37,471.76,212.05,471.9,212.81,471.9z"/>
		<path d="M223.67,458.81c0.49-0.17,0.99-0.28,1.5-0.33c0.51-0.05,0.97,0,1.39,0.14s0.77,0.42,1.07,0.81
			s0.48,0.95,0.54,1.67c0.32-0.47,0.73-0.89,1.24-1.27c0.45-0.34,1-0.63,1.67-0.88s1.49-0.37,2.47-0.37c0.15,0,0.3,0,0.45,0
			c0.15,0.02,0.31,0.05,0.48,0.08c0.17,0.03,0.35,0.08,0.54,0.14v2.9c-1.21-0.04-2.29,0.08-3.25,0.38
			c-0.59,0.15-1.06,0.33-1.39,0.56c-0.33,0.22-0.64,0.5-0.92,0.84c-0.29,0.34-0.52,0.75-0.7,1.24s-0.27,1.06-0.27,1.72v5.41h1.56
			v2.87h-5v-12.07c-0.02-0.21-0.11-0.42-0.27-0.64c-0.16-0.21-0.53-0.32-1.1-0.32L223.67,458.81L223.67,458.81z"/>
		<path d="M243.64,470.88c0.02,0.25,0.11,0.48,0.27,0.69s0.57,0.3,1.23,0.3v2.87c-0.45,0.13-0.96,0.22-1.53,0.29
			c-0.57,0.07-1.11,0.04-1.61-0.06c-0.5-0.11-0.92-0.31-1.27-0.62c-0.35-0.31-0.53-0.76-0.53-1.35v-11.27h-1.5v-2.9h4.94V470.88z
			 M243.64,456.55h-2.32v-2.83h2.32V456.55z"/>
		<path d="M255.39,458.59c1.12,0,2.19,0.2,3.18,0.61c1,0.4,1.87,0.97,2.61,1.7s1.33,1.6,1.75,2.61s0.64,2.12,0.64,3.33
			c0,1.76-0.41,3.25-1.23,4.47s-1.83,2.14-3.04,2.77c-1.21,0.63-2.52,0.96-3.93,0.99s-2.72-0.25-3.93-0.84
			c-1.21-0.59-2.22-1.5-3.03-2.72s-1.21-2.78-1.21-4.67c0-1.08,0.19-2.12,0.57-3.12s0.92-1.88,1.62-2.64s1.55-1.37,2.56-1.82
			C252.97,458.81,254.11,458.59,255.39,458.59z M255.39,471.9c0.81,0,1.51-0.14,2.1-0.43s1.09-0.67,1.48-1.15s0.69-1.02,0.88-1.62
			s0.29-1.23,0.29-1.86c0-0.66-0.11-1.29-0.32-1.91c-0.21-0.62-0.52-1.16-0.91-1.64s-0.89-0.86-1.48-1.15s-1.27-0.43-2.04-0.43
			c-0.79,0-1.48,0.14-2.07,0.43c-0.59,0.29-1.08,0.67-1.46,1.15s-0.67,1.03-0.86,1.66s-0.29,1.27-0.29,1.93
			c0,0.64,0.1,1.25,0.3,1.85c0.2,0.59,0.5,1.13,0.89,1.61s0.88,0.86,1.46,1.15C253.95,471.76,254.62,471.9,255.39,471.9z"/>
		<path d="M276.63,469.04c0,0.28,0.03,0.58,0.1,0.92c0.06,0.34,0.18,0.65,0.35,0.92c0.17,0.28,0.41,0.51,0.73,0.7
			s0.74,0.29,1.27,0.29c0.93,0,1.54-0.28,1.83-0.83c0.29-0.55,0.43-1.22,0.43-2.01v-14.74h-1.4v-3.44h6.27v3.44h-1.43v14.81
			c0,0.72-0.06,1.44-0.19,2.15s-0.4,1.35-0.81,1.91s-1,1.02-1.75,1.37s-1.77,0.53-3.04,0.53c-1.06,0-1.96-0.18-2.71-0.53
			c-0.74-0.35-1.34-0.81-1.8-1.37c-0.46-0.56-0.79-1.21-0.99-1.93c-0.2-0.72-0.3-1.45-0.3-2.2L276.63,469.04L276.63,469.04z"/>
		<path d="M297.11,458.59c1.12,0,2.19,0.2,3.18,0.61c1,0.4,1.87,0.97,2.61,1.7s1.33,1.6,1.75,2.61s0.64,2.12,0.64,3.33
			c0,1.76-0.41,3.25-1.23,4.47s-1.83,2.14-3.04,2.77c-1.21,0.63-2.52,0.96-3.93,0.99s-2.72-0.25-3.93-0.84s-2.22-1.5-3.03-2.72
			s-1.21-2.78-1.21-4.67c0-1.08,0.19-2.12,0.57-3.12s0.92-1.88,1.62-2.64c0.7-0.76,1.55-1.37,2.56-1.82
			C294.69,458.81,295.83,458.59,297.11,458.59z M297.11,471.9c0.81,0,1.51-0.14,2.1-0.43s1.09-0.67,1.48-1.15s0.69-1.02,0.88-1.62
			s0.29-1.23,0.29-1.86c0-0.66-0.11-1.29-0.32-1.91c-0.21-0.62-0.52-1.16-0.91-1.64s-0.89-0.86-1.48-1.15s-1.27-0.43-2.04-0.43
			c-0.79,0-1.48,0.14-2.07,0.43s-1.08,0.67-1.46,1.15s-0.67,1.03-0.86,1.66c-0.19,0.63-0.29,1.27-0.29,1.93
			c0,0.64,0.1,1.25,0.3,1.85c0.2,0.59,0.5,1.13,0.89,1.61s0.88,0.86,1.46,1.15C295.67,471.76,296.34,471.9,297.11,471.9z"/>
		<path d="M320.93,461.71h-1.5v-2.9h4.94v10.76c0,1.02-0.19,1.87-0.57,2.56c-0.38,0.69-0.91,1.25-1.58,1.69
			c-0.67,0.44-1.46,0.75-2.37,0.94s-1.9,0.29-2.96,0.29c-1.08,0-2.08-0.1-2.98-0.29c-0.9-0.19-1.68-0.5-2.34-0.94
			c-0.66-0.43-1.17-1-1.54-1.69s-0.56-1.54-0.56-2.56v-6.94c0-0.17-0.05-0.33-0.16-0.48c-0.11-0.11-0.26-0.21-0.46-0.3
			c-0.2-0.1-0.49-0.14-0.88-0.14v-2.9c0.49-0.21,1.02-0.33,1.61-0.37c0.58-0.03,1.12,0.04,1.61,0.21c0.49,0.17,0.9,0.45,1.23,0.83
			c0.33,0.38,0.49,0.89,0.49,1.53V469c0,0.62,0.2,1.14,0.59,1.56c0.39,0.42,0.89,0.74,1.48,0.96c0.59,0.21,1.24,0.32,1.94,0.33
			s1.35-0.09,1.94-0.3c0.59-0.21,1.09-0.53,1.48-0.96c0.39-0.42,0.59-0.96,0.59-1.59V461.71z"/>
		<path d="M336.08,458.59c1.04,0,1.94,0.13,2.69,0.4s1.39,0.62,1.89,1.07c0.51,0.45,0.92,0.95,1.23,1.51
			s0.55,1.14,0.72,1.74c0.38,1.38,0.47,2.95,0.25,4.71h-11.14c0.02,0.57,0.15,1.1,0.38,1.58s0.55,0.88,0.94,1.21
			s0.84,0.59,1.35,0.78c0.51,0.19,1.05,0.29,1.62,0.29s1.08-0.05,1.51-0.14c0.44-0.1,0.83-0.22,1.19-0.37
			c0.36-0.15,0.7-0.32,1.02-0.51c0.32-0.19,0.65-0.39,0.99-0.6l1.62,2.52c-1.02,0.68-2.15,1.23-3.39,1.66
			c-1.24,0.43-2.51,0.64-3.81,0.64c-0.85,0-1.59-0.1-2.23-0.3c-0.64-0.2-1.19-0.47-1.67-0.8c-0.48-0.33-0.88-0.7-1.21-1.11
			s-0.61-0.84-0.84-1.29c-0.51-1.02-0.81-2.19-0.89-3.5c-0.13-1.76,0.05-3.34,0.54-4.75c0.23-0.83,0.53-1.49,0.88-1.97
			c0.35-0.49,0.81-0.93,1.37-1.34c0.56-0.4,1.25-0.74,2.07-1C333.99,458.72,334.96,458.59,336.08,458.59z M339.65,465.5
			c0.06-0.7-0.01-1.33-0.22-1.88c-0.17-0.51-0.5-0.95-0.99-1.32s-1.23-0.56-2.23-0.56c-1.02,0-1.83,0.2-2.44,0.59
			c-0.6,0.39-1.06,0.82-1.35,1.29c-0.38,0.55-0.64,1.18-0.76,1.88H339.65z"/>
		<path d="M347.42,474.74v-12.01c-0.02-0.23-0.11-0.46-0.27-0.68s-0.53-0.33-1.1-0.33v-2.9
			c0.51-0.17,1.04-0.28,1.59-0.33c0.55-0.05,1.07,0,1.54,0.16c0.48,0.16,0.87,0.44,1.18,0.83s0.46,0.96,0.46,1.7
			c0.3-0.47,0.69-0.89,1.18-1.27c0.42-0.34,0.97-0.64,1.62-0.89c0.66-0.25,1.48-0.38,2.45-0.38c1.08,0.06,2.05,0.31,2.9,0.73
			c0.51,0.21,0.91,0.45,1.19,0.72c0.29,0.27,0.56,0.59,0.81,0.99c0.25,0.39,0.46,0.86,0.62,1.4s0.24,1.16,0.24,1.86v7.55h1.53v2.87
			h-5v-10.29c0-0.64-0.19-1.16-0.56-1.58c-0.37-0.41-0.83-0.72-1.39-0.91c-0.55-0.19-1.16-0.28-1.82-0.25
			c-0.66,0.02-1.26,0.14-1.81,0.35s-1.01,0.52-1.39,0.92c-0.37,0.4-0.56,0.89-0.56,1.46v7.42h1.5l0.03,2.87L347.42,474.74
			L347.42,474.74L347.42,474.74z"/>
		<path d="M374.33,464.26c0-1.04,0.2-1.93,0.59-2.68c0.39-0.74,0.91-1.34,1.55-1.8c0.64-0.46,1.35-0.79,2.15-0.99
			s1.59-0.27,2.39-0.19c0.8,0.07,1.56,0.28,2.28,0.6c0.72,0.33,1.33,0.79,1.82,1.39l0.02-6.85h-1.56v-2.9h5v19.79
			c0.02,0.23,0.11,0.49,0.26,0.78c0.16,0.29,0.51,0.43,1.07,0.43v2.9c-0.55,0.21-1.09,0.32-1.62,0.32s-1-0.1-1.42-0.3
			c-0.41-0.2-0.75-0.49-1-0.88c-0.25-0.38-0.38-0.84-0.38-1.37c0,0.11-0.12,0.3-0.35,0.59c-0.23,0.29-0.58,0.57-1.05,0.86
			s-1.06,0.54-1.77,0.76s-1.53,0.33-2.47,0.33c-1.02-0.06-1.93-0.31-2.74-0.73c-0.49-0.21-0.88-0.45-1.16-0.7
			c-0.29-0.25-0.55-0.58-0.78-0.97s-0.43-0.85-0.59-1.39c-0.16-0.53-0.24-1.15-0.24-1.85L374.33,464.26L374.33,464.26z
			 M377.83,469.07c0,0.68,0.18,1.23,0.54,1.66c0.36,0.43,0.81,0.73,1.34,0.91s1.12,0.25,1.76,0.21s1.23-0.18,1.76-0.41
			s0.98-0.55,1.34-0.96c0.36-0.41,0.54-0.87,0.54-1.4v-4.65c0-0.53-0.18-0.99-0.54-1.39c-0.36-0.39-0.81-0.7-1.34-0.92
			c-0.53-0.22-1.12-0.35-1.76-0.38s-1.23,0.04-1.76,0.21c-0.53,0.17-0.98,0.46-1.34,0.88c-0.36,0.41-0.54,0.95-0.54,1.61V469.07z"/>
		<path d="M401.18,458.59c1.04,0,1.94,0.13,2.69,0.4s1.39,0.62,1.89,1.07c0.51,0.45,0.92,0.95,1.23,1.51
			s0.55,1.14,0.72,1.74c0.38,1.38,0.47,2.95,0.25,4.71h-11.15c0.02,0.57,0.15,1.1,0.38,1.58s0.55,0.88,0.94,1.21
			s0.84,0.59,1.35,0.78c0.51,0.19,1.05,0.29,1.62,0.29s1.08-0.05,1.51-0.14c0.44-0.1,0.83-0.22,1.19-0.37
			c0.36-0.15,0.7-0.32,1.02-0.51c0.32-0.19,0.65-0.39,0.99-0.6l1.62,2.52c-1.02,0.68-2.15,1.23-3.39,1.66
			c-1.24,0.43-2.51,0.64-3.81,0.64c-0.85,0-1.59-0.1-2.23-0.3c-0.64-0.2-1.19-0.47-1.67-0.8c-0.48-0.33-0.88-0.7-1.21-1.11
			s-0.61-0.84-0.84-1.29c-0.51-1.02-0.81-2.19-0.89-3.5c-0.13-1.76,0.05-3.34,0.54-4.75c0.23-0.83,0.53-1.49,0.88-1.97
			c0.35-0.49,0.81-0.93,1.37-1.34c0.56-0.4,1.25-0.74,2.07-1C399.08,458.72,400.05,458.59,401.18,458.59z M404.74,465.5
			c0.06-0.7-0.01-1.33-0.22-1.88c-0.17-0.51-0.5-0.95-0.99-1.32s-1.23-0.56-2.23-0.56c-1.02,0-1.83,0.2-2.44,0.59
			c-0.6,0.39-1.06,0.82-1.35,1.29c-0.38,0.55-0.64,1.18-0.76,1.88H404.74z"/>
		<path d="M423.75,471.87h1.4v2.87h-6.24v-2.87h1.4v-18.12h-1.4v-2.9h6.24v2.9h-1.4V471.87z"/>
		<path d="M429.33,474.74v-12.01c-0.02-0.23-0.11-0.46-0.27-0.68s-0.53-0.33-1.1-0.33v-2.9
			c0.51-0.17,1.04-0.28,1.59-0.33c0.55-0.05,1.07,0,1.54,0.16c0.48,0.16,0.87,0.44,1.18,0.83s0.46,0.96,0.46,1.7
			c0.3-0.47,0.69-0.89,1.18-1.27c0.42-0.34,0.97-0.64,1.62-0.89c0.66-0.25,1.48-0.38,2.45-0.38c1.08,0.06,2.05,0.31,2.9,0.73
			c0.51,0.21,0.91,0.45,1.19,0.72c0.29,0.27,0.56,0.59,0.81,0.99c0.25,0.39,0.46,0.86,0.62,1.4s0.24,1.16,0.24,1.86v7.55h1.53v2.87
			h-5v-10.29c0-0.64-0.19-1.16-0.56-1.58c-0.37-0.41-0.83-0.72-1.39-0.91c-0.55-0.19-1.16-0.28-1.82-0.25
			c-0.66,0.02-1.26,0.14-1.81,0.35s-1.01,0.52-1.39,0.92c-0.37,0.4-0.56,0.89-0.56,1.46v7.42h1.5l0.03,2.87L429.33,474.74
			L429.33,474.74L429.33,474.74z"/>
		<path d="M455.22,474.99c-1.23,0-2.28-0.23-3.15-0.7s-1.59-1.08-2.15-1.83s-0.98-1.61-1.24-2.58
			c-0.27-0.97-0.4-1.96-0.4-2.98c0-1.08,0.17-2.12,0.53-3.12c0.35-1,0.86-1.88,1.53-2.66c0.67-0.77,1.48-1.39,2.44-1.85
			s2.05-0.69,3.28-0.69c0.68,0,1.27,0.03,1.77,0.08c0.5,0.05,0.96,0.14,1.39,0.25c0.42,0.12,0.83,0.27,1.23,0.45
			c0.39,0.18,0.81,0.4,1.26,0.65v3.18h-2.29v-0.96c-0.66-0.23-1.22-0.39-1.67-0.48c-0.46-0.08-0.88-0.13-1.26-0.13
			c-1,0-1.84,0.25-2.53,0.75s-1.22,1.13-1.59,1.88s-0.58,1.57-0.62,2.45s0.07,1.7,0.35,2.45s0.72,1.38,1.34,1.88s1.4,0.75,2.36,0.75
			c0.76,0,1.52-0.11,2.26-0.33c0.74-0.22,1.51-0.51,2.29-0.88l1.4,2.45c-0.96,0.62-1.97,1.09-3.06,1.43
			C457.57,474.82,456.43,474.99,455.22,474.99z"/>
		<path d="M480.88,458.81v12.01c0.02,0.23,0.11,0.46,0.27,0.68c0.16,0.22,0.53,0.33,1.1,0.33v2.9
			c-0.51,0.17-1.04,0.28-1.59,0.33c-0.55,0.05-1.07,0-1.54-0.16s-0.87-0.44-1.18-0.84s-0.46-0.97-0.46-1.69
			c-0.3,0.47-0.69,0.89-1.18,1.27c-0.42,0.34-0.97,0.64-1.62,0.89c-0.66,0.25-1.48,0.38-2.45,0.38c-1.08-0.06-2.04-0.31-2.87-0.73
			c-0.53-0.21-0.94-0.45-1.23-0.72s-0.56-0.59-0.81-0.99c-0.25-0.39-0.46-0.86-0.62-1.4s-0.24-1.16-0.24-1.86v-7.55h-1.53v-2.87h5
			v10.29c0,0.64,0.19,1.16,0.56,1.58c0.37,0.41,0.83,0.72,1.39,0.91c0.55,0.19,1.16,0.28,1.81,0.25c0.66-0.02,1.26-0.14,1.82-0.35
			c0.55-0.21,1.01-0.52,1.39-0.92c0.37-0.4,0.56-0.89,0.56-1.46v-7.42h-1.53l-0.03-2.87L480.88,458.81L480.88,458.81L480.88,458.81z
			"/>
		<path d="M490.5,461.04c0.32-0.45,0.74-0.85,1.27-1.21c0.49-0.34,1.09-0.63,1.8-0.86s1.61-0.35,2.69-0.35
			c0.55,0.02,1.1,0.13,1.66,0.32c0.49,0.15,0.98,0.39,1.48,0.73s0.95,0.84,1.35,1.5c0.4-0.68,0.94-1.19,1.61-1.54
			c0.67-0.35,1.33-0.6,1.99-0.75c0.76-0.17,1.56-0.25,2.39-0.25c1.08,0.04,2.05,0.28,2.9,0.7c0.51,0.21,0.91,0.45,1.21,0.7
			s0.57,0.58,0.83,0.97c0.25,0.39,0.46,0.85,0.62,1.39c0.16,0.53,0.24,1.15,0.24,1.85v7.64h1.5v2.87h-4.94v-10.32
			c0-0.64-0.19-1.16-0.56-1.56s-0.84-0.7-1.42-0.89c-0.57-0.19-1.18-0.28-1.83-0.25c-0.65,0.02-1.26,0.13-1.83,0.33
			c-0.57,0.2-1.05,0.49-1.42,0.86c-0.37,0.37-0.56,0.82-0.56,1.35v7.61h1.56v2.87h-5v-10.32c0-0.66-0.19-1.19-0.56-1.59
			s-0.84-0.7-1.4-0.88s-1.17-0.26-1.81-0.24c-0.65,0.02-1.25,0.14-1.82,0.37c-0.56,0.22-1.03,0.53-1.4,0.92s-0.56,0.87-0.56,1.42
			v7.45h1.56v2.87h-5v-12.02c0-0.25-0.08-0.45-0.24-0.59s-0.32-0.24-0.49-0.3c-0.23-0.08-0.49-0.13-0.76-0.13v-2.9
			c0.45-0.19,0.96-0.32,1.53-0.38s1.11-0.03,1.62,0.1s0.93,0.36,1.27,0.68c0.34,0.33,0.51,0.79,0.51,1.39v0.44L490.5,461.04
			L490.5,461.04z"/>
		<path d="M532.22,469.32c0,1.02-0.2,1.91-0.59,2.66s-0.91,1.36-1.54,1.82c-0.64,0.46-1.35,0.79-2.15,0.99
			c-0.8,0.2-1.59,0.27-2.39,0.19c-0.8-0.07-1.56-0.28-2.28-0.62c-0.72-0.34-1.33-0.8-1.81-1.37v9.74h-4.97v-2.9h1.53v-16.88
			c-0.02-0.23-0.11-0.49-0.27-0.78c-0.16-0.29-0.53-0.43-1.1-0.43v-2.9c0.55-0.21,1.09-0.32,1.62-0.32c0.53,0,1,0.1,1.42,0.3
			s0.75,0.49,1,0.86s0.38,0.83,0.38,1.39c0-0.11,0.12-0.3,0.35-0.59c0.23-0.29,0.58-0.57,1.05-0.86s1.06-0.54,1.77-0.76
			s1.53-0.33,2.47-0.33c1.02,0.06,1.94,0.3,2.77,0.7c0.47,0.23,0.84,0.48,1.13,0.73s0.55,0.58,0.78,0.97
			c0.23,0.39,0.43,0.85,0.59,1.39c0.16,0.53,0.24,1.15,0.24,1.85V469.32z M528.72,464.51c0-0.7-0.18-1.26-0.54-1.67
			s-0.81-0.71-1.34-0.89s-1.11-0.25-1.75-0.21s-1.22,0.18-1.75,0.41s-0.98,0.55-1.34,0.96c-0.36,0.4-0.54,0.87-0.54,1.4v4.65
			c0,0.53,0.18,0.99,0.54,1.39c0.36,0.39,0.81,0.7,1.34,0.92c0.53,0.22,1.11,0.35,1.75,0.38s1.22-0.04,1.75-0.21
			c0.53-0.17,0.98-0.46,1.34-0.88c0.36-0.41,0.54-0.95,0.54-1.61V464.51z"/>
		<path d="M537.12,474.74v-19.97c0-0.25-0.08-0.45-0.24-0.59s-0.32-0.24-0.49-0.3c-0.23-0.08-0.49-0.13-0.76-0.13v-2.9
			c0.49-0.19,1.02-0.32,1.59-0.38s1.1-0.02,1.59,0.13c0.49,0.15,0.9,0.42,1.24,0.81c0.34,0.39,0.51,0.94,0.51,1.64v18.82h1.5v2.87
			H537.12L537.12,474.74z"/>
		<path d="M549.67,470.88c0.02,0.25,0.11,0.48,0.27,0.69s0.57,0.3,1.23,0.3v2.87c-0.45,0.13-0.96,0.22-1.53,0.29
			c-0.57,0.07-1.11,0.04-1.61-0.06c-0.5-0.11-0.92-0.31-1.27-0.62c-0.35-0.31-0.53-0.76-0.53-1.35v-11.27h-1.5v-2.9h4.94
			L549.67,470.88L549.67,470.88z M549.67,456.55h-2.32v-2.83h2.32V456.55z"/>
		<path d="M558.71,461.04c0.32-0.45,0.74-0.85,1.27-1.21c0.49-0.34,1.09-0.63,1.8-0.86c0.71-0.23,1.61-0.35,2.69-0.35
			c0.55,0.02,1.1,0.13,1.66,0.32c0.49,0.15,0.98,0.39,1.48,0.73s0.95,0.84,1.35,1.5c0.4-0.68,0.94-1.19,1.61-1.54
			c0.67-0.35,1.33-0.6,1.99-0.75c0.76-0.17,1.56-0.25,2.39-0.25c1.08,0.04,2.05,0.28,2.9,0.7c0.51,0.21,0.91,0.45,1.21,0.7
			c0.3,0.25,0.57,0.58,0.83,0.97c0.25,0.39,0.46,0.85,0.62,1.39c0.16,0.53,0.24,1.15,0.24,1.85v7.64h1.5v2.87h-4.94v-10.32
			c0-0.64-0.19-1.16-0.56-1.56s-0.84-0.7-1.42-0.89c-0.57-0.19-1.18-0.28-1.83-0.25c-0.65,0.02-1.26,0.13-1.83,0.33
			s-1.05,0.49-1.42,0.86s-0.56,0.82-0.56,1.35v7.61h1.56v2.87h-5v-10.32c0-0.66-0.19-1.19-0.56-1.59s-0.84-0.7-1.4-0.88
			s-1.17-0.26-1.81-0.24c-0.65,0.02-1.25,0.14-1.82,0.37c-0.56,0.22-1.03,0.53-1.4,0.92s-0.56,0.87-0.56,1.42v7.45h1.56v2.87h-5
			v-12.02c0-0.25-0.08-0.45-0.24-0.59s-0.32-0.24-0.49-0.3c-0.23-0.08-0.49-0.13-0.76-0.13v-2.9c0.45-0.19,0.96-0.32,1.53-0.38
			s1.11-0.03,1.62,0.1s0.93,0.36,1.27,0.68c0.34,0.33,0.51,0.79,0.51,1.39v0.44L558.71,461.04L558.71,461.04z"/>
		<path d="M589.64,470.88c0.02,0.25,0.11,0.48,0.27,0.69s0.57,0.3,1.23,0.3v2.87c-0.45,0.13-0.96,0.22-1.53,0.29
			c-0.57,0.07-1.11,0.04-1.61-0.06c-0.5-0.11-0.92-0.31-1.27-0.62c-0.35-0.31-0.53-0.76-0.53-1.35v-11.27h-1.5v-2.9h4.94
			L589.64,470.88L589.64,470.88z M589.64,456.55h-2.32v-2.83h2.32V456.55z"/>
		<path d="M601.86,458.59c1.04,0,1.94,0.13,2.69,0.4s1.39,0.62,1.89,1.07c0.51,0.45,0.92,0.95,1.23,1.51
			s0.55,1.14,0.72,1.74c0.38,1.38,0.47,2.95,0.25,4.71h-11.15c0.02,0.57,0.15,1.1,0.38,1.58s0.55,0.88,0.94,1.21
			s0.84,0.59,1.35,0.78c0.51,0.19,1.05,0.29,1.62,0.29s1.08-0.05,1.51-0.14c0.44-0.1,0.83-0.22,1.19-0.37s0.7-0.32,1.02-0.51
			c0.32-0.19,0.65-0.39,0.99-0.6l1.62,2.52c-1.02,0.68-2.15,1.23-3.39,1.66s-2.51,0.64-3.81,0.64c-0.85,0-1.59-0.1-2.23-0.3
			c-0.64-0.2-1.19-0.47-1.67-0.8c-0.48-0.33-0.88-0.7-1.21-1.11s-0.61-0.84-0.84-1.29c-0.51-1.02-0.81-2.19-0.89-3.5
			c-0.13-1.76,0.05-3.34,0.54-4.75c0.23-0.83,0.53-1.49,0.88-1.97c0.35-0.49,0.81-0.93,1.37-1.34c0.56-0.4,1.25-0.74,2.07-1
			C599.77,458.72,600.74,458.59,601.86,458.59z M605.43,465.5c0.06-0.7-0.01-1.33-0.22-1.88c-0.17-0.51-0.5-0.95-0.99-1.32
			s-1.23-0.56-2.23-0.56c-1.02,0-1.83,0.2-2.44,0.59c-0.6,0.39-1.06,0.82-1.35,1.29c-0.38,0.55-0.64,1.18-0.76,1.88H605.43z"/>
		<path d="M613.2,474.74v-12.01c-0.02-0.23-0.11-0.46-0.27-0.68c-0.16-0.22-0.53-0.33-1.1-0.33v-2.9
			c0.51-0.17,1.04-0.28,1.59-0.33c0.55-0.05,1.07,0,1.54,0.16c0.48,0.16,0.87,0.44,1.18,0.83s0.46,0.96,0.46,1.7
			c0.3-0.47,0.69-0.89,1.18-1.27c0.42-0.34,0.97-0.64,1.62-0.89c0.66-0.25,1.48-0.38,2.45-0.38c1.08,0.06,2.05,0.31,2.9,0.73
			c0.51,0.21,0.91,0.45,1.19,0.72c0.29,0.27,0.56,0.59,0.81,0.99c0.25,0.39,0.46,0.86,0.62,1.4s0.24,1.16,0.24,1.86v7.55h1.53v2.87
			h-5v-10.29c0-0.64-0.19-1.16-0.56-1.58c-0.37-0.41-0.83-0.72-1.39-0.91c-0.55-0.19-1.16-0.28-1.82-0.25
			c-0.66,0.02-1.26,0.14-1.81,0.35s-1.01,0.52-1.39,0.92c-0.37,0.4-0.56,0.89-0.56,1.46v7.42h1.5l0.03,2.87L613.2,474.74
			L613.2,474.74L613.2,474.74z"/>
		<path d="M633.61,456.04h-1.53v-2.9h5v5.67h3.03v2.9h-3.03v9.2c0,0.28,0.08,0.48,0.24,0.6s0.33,0.22,0.53,0.29
			c0.23,0.06,0.49,0.08,0.76,0.06v2.87c-0.45,0.19-0.96,0.3-1.54,0.32c-0.58,0.02-1.12-0.05-1.63-0.21s-0.95-0.42-1.3-0.8
			c-0.35-0.37-0.53-0.88-0.53-1.51V456.04z"/>
		<path d="M650.43,458.59c1.12,0,2.19,0.2,3.18,0.61c1,0.4,1.87,0.97,2.61,1.7s1.33,1.6,1.75,2.61s0.64,2.12,0.64,3.33
			c0,1.76-0.41,3.25-1.23,4.47s-1.83,2.14-3.04,2.77c-1.21,0.63-2.52,0.96-3.93,0.99s-2.72-0.25-3.93-0.84s-2.22-1.5-3.03-2.72
			c-0.81-1.22-1.21-2.78-1.21-4.67c0-1.08,0.19-2.12,0.57-3.12s0.92-1.88,1.62-2.64s1.55-1.37,2.56-1.82
			C648.01,458.81,649.15,458.59,650.43,458.59z M650.43,471.9c0.81,0,1.51-0.14,2.1-0.43c0.59-0.29,1.09-0.67,1.48-1.15
			s0.69-1.02,0.88-1.62s0.29-1.23,0.29-1.86c0-0.66-0.11-1.29-0.32-1.91s-0.52-1.16-0.91-1.64c-0.39-0.48-0.89-0.86-1.48-1.15
			c-0.59-0.29-1.27-0.43-2.04-0.43c-0.79,0-1.48,0.14-2.07,0.43s-1.08,0.67-1.46,1.15s-0.67,1.03-0.86,1.66s-0.29,1.27-0.29,1.93
			c0,0.64,0.1,1.25,0.3,1.85c0.2,0.59,0.5,1.13,0.89,1.61s0.88,0.86,1.46,1.15C648.99,471.76,649.66,471.9,650.43,471.9z"/>
		<path d="M679.28,466.49h-5.03v5.38h1.43v2.87h-6.31v-2.87h1.43v-18.12h-1.43v-2.9h9.78c1.08,0,2.09,0.19,3.03,0.56
			c0.93,0.37,1.75,0.9,2.45,1.58c0.7,0.68,1.25,1.5,1.64,2.45c0.39,0.96,0.59,2.03,0.59,3.22c0,2.29-0.65,4.13-1.96,5.53
			S681.72,466.34,679.28,466.49z M678.45,463.62c0.68,0,1.32-0.11,1.91-0.33c0.59-0.22,1.12-0.55,1.58-0.99s0.82-0.96,1.08-1.56
			c0.27-0.6,0.4-1.29,0.4-2.05c0-0.7-0.11-1.35-0.33-1.96c-0.22-0.6-0.55-1.12-0.99-1.56c-0.44-0.43-0.96-0.78-1.58-1.03
			s-1.31-0.38-2.07-0.38h-4.2v9.87L678.45,463.62L678.45,463.62z"/>
		<path d="M697.15,458.59c1.12,0,2.19,0.2,3.18,0.61c1,0.4,1.87,0.97,2.61,1.7s1.33,1.6,1.75,2.61s0.64,2.12,0.64,3.33
			c0,1.76-0.41,3.25-1.23,4.47s-1.83,2.14-3.04,2.77c-1.21,0.63-2.52,0.96-3.93,0.99s-2.72-0.25-3.93-0.84s-2.22-1.5-3.03-2.72
			c-0.81-1.22-1.21-2.78-1.21-4.67c0-1.08,0.19-2.12,0.57-3.12s0.92-1.88,1.62-2.64s1.55-1.37,2.56-1.82
			C694.73,458.81,695.87,458.59,697.15,458.59z M697.15,471.9c0.81,0,1.51-0.14,2.1-0.43c0.59-0.29,1.09-0.67,1.48-1.15
			s0.69-1.02,0.88-1.62s0.29-1.23,0.29-1.86c0-0.66-0.11-1.29-0.32-1.91s-0.52-1.16-0.91-1.64c-0.39-0.48-0.89-0.86-1.48-1.15
			c-0.59-0.29-1.27-0.43-2.04-0.43c-0.79,0-1.48,0.14-2.07,0.43s-1.08,0.67-1.46,1.15s-0.67,1.03-0.86,1.66s-0.29,1.27-0.29,1.93
			c0,0.64,0.1,1.25,0.3,1.85c0.2,0.59,0.5,1.13,0.89,1.61s0.88,0.86,1.46,1.15C695.71,471.76,696.38,471.9,697.15,471.9z"/>
		<path d="M709.18,474.74v-19.97c0-0.25-0.08-0.45-0.24-0.59s-0.32-0.24-0.49-0.3c-0.23-0.08-0.49-0.13-0.76-0.13v-2.9
			c0.49-0.19,1.02-0.32,1.59-0.38s1.1-0.02,1.59,0.13c0.49,0.15,0.9,0.42,1.24,0.81c0.34,0.39,0.51,0.94,0.51,1.64v18.82h1.5v2.87
			H709.18L709.18,474.74z"/>
		<path d="M721.73,470.88c0.02,0.25,0.11,0.48,0.27,0.69s0.57,0.3,1.23,0.3v2.87c-0.45,0.13-0.96,0.22-1.53,0.29
			c-0.57,0.07-1.11,0.04-1.61-0.06c-0.5-0.11-0.92-0.31-1.27-0.62c-0.35-0.31-0.53-0.76-0.53-1.35v-11.27h-1.5v-2.9h4.94
			L721.73,470.88L721.73,470.88z M722.94,451.84l-3.5,4.43h-2.29l2.48-4.43H722.94z"/>
		<path d="M727.37,456.04h-1.53v-2.9h5v5.67h3.03v2.9h-3.03v9.2c0,0.28,0.08,0.48,0.24,0.6s0.33,0.22,0.53,0.29
			c0.23,0.06,0.49,0.08,0.76,0.06v2.87c-0.45,0.19-0.96,0.3-1.54,0.32c-0.58,0.02-1.12-0.05-1.63-0.21s-0.95-0.42-1.3-0.8
			c-0.35-0.37-0.53-0.88-0.53-1.51V456.04z"/>
		<path d="M741.47,470.88c0.02,0.25,0.11,0.48,0.27,0.69s0.57,0.3,1.23,0.3v2.87c-0.45,0.13-0.96,0.22-1.53,0.29
			c-0.57,0.07-1.11,0.04-1.61-0.06c-0.5-0.11-0.92-0.31-1.27-0.62c-0.35-0.31-0.53-0.76-0.53-1.35v-11.27h-1.5v-2.9h4.94
			L741.47,470.88L741.47,470.88z M741.47,456.55h-2.32v-2.83h2.32V456.55z"/>
		<path d="M752.59,474.99c-1.23,0-2.28-0.23-3.15-0.7s-1.59-1.08-2.15-1.83s-0.98-1.61-1.24-2.58
			c-0.27-0.97-0.4-1.96-0.4-2.98c0-1.08,0.17-2.12,0.53-3.12c0.35-1,0.86-1.88,1.53-2.66c0.67-0.77,1.48-1.39,2.44-1.85
			s2.05-0.69,3.28-0.69c0.68,0,1.27,0.03,1.77,0.08c0.5,0.05,0.96,0.14,1.39,0.25c0.42,0.12,0.83,0.27,1.23,0.45
			c0.39,0.18,0.81,0.4,1.26,0.65v3.18h-2.29v-0.96c-0.66-0.23-1.22-0.39-1.67-0.48c-0.46-0.08-0.88-0.13-1.26-0.13
			c-1,0-1.84,0.25-2.53,0.75s-1.22,1.13-1.59,1.88c-0.37,0.75-0.58,1.57-0.62,2.45s0.07,1.7,0.35,2.45
			c0.28,0.75,0.72,1.38,1.34,1.88c0.62,0.5,1.4,0.75,2.36,0.75c0.76,0,1.52-0.11,2.26-0.33s1.51-0.51,2.29-0.88l1.4,2.45
			c-0.96,0.62-1.97,1.09-3.06,1.43C754.94,474.82,753.8,474.99,752.59,474.99z"/>
		<path d="M770.64,458.59c1.12,0,2.19,0.2,3.18,0.61c1,0.4,1.87,0.97,2.61,1.7s1.33,1.6,1.75,2.61s0.64,2.12,0.64,3.33
			c0,1.76-0.41,3.25-1.23,4.47s-1.83,2.14-3.04,2.77c-1.21,0.63-2.52,0.96-3.93,0.99s-2.72-0.25-3.93-0.84s-2.22-1.5-3.03-2.72
			c-0.81-1.22-1.21-2.78-1.21-4.67c0-1.08,0.19-2.12,0.57-3.12s0.92-1.88,1.62-2.64s1.55-1.37,2.56-1.82
			C768.23,458.81,769.37,458.59,770.64,458.59z M770.64,471.9c0.81,0,1.51-0.14,2.1-0.43c0.59-0.29,1.09-0.67,1.48-1.15
			s0.69-1.02,0.88-1.62s0.29-1.23,0.29-1.86c0-0.66-0.11-1.29-0.32-1.91s-0.52-1.16-0.91-1.64c-0.39-0.48-0.89-0.86-1.48-1.15
			c-0.59-0.29-1.27-0.43-2.04-0.43c-0.79,0-1.48,0.14-2.07,0.43s-1.08,0.67-1.46,1.15s-0.67,1.03-0.86,1.66s-0.29,1.27-0.29,1.93
			c0,0.64,0.1,1.25,0.3,1.85c0.2,0.59,0.5,1.13,0.89,1.61s0.88,0.86,1.46,1.15C769.21,471.76,769.88,471.9,770.64,471.9z"/>
	</g>
</g>
</svg>
