<?xml version="1.0" encoding="UTF-8" standalone="no"?>
<svg
   xmlns:dc="http://purl.org/dc/elements/1.1/"
   xmlns:cc="http://creativecommons.org/ns#"
   xmlns:rdf="http://www.w3.org/1999/02/22-rdf-syntax-ns#"
   xmlns:svg="http://www.w3.org/2000/svg"
   xmlns="http://www.w3.org/2000/svg"
   xmlns:sodipodi="http://sodipodi.sourceforge.net/DTD/sodipodi-0.dtd"
   xmlns:inkscape="http://www.inkscape.org/namespaces/inkscape"
   version="1.1"
   id="Capa_1"
   x="0px"
   y="0px"
   viewBox="0 0 739.99999 299.99998"
   xml:space="preserve"
   sodipodi:docname="logo-sm.svg"
   width="740"
   height="300"
   inkscape:version="1.0.2 (1.0.2+r75+1)"><metadata
   id="metadata111"><rdf:RDF><cc:Work
       rdf:about=""><dc:format>image/svg+xml</dc:format><dc:type
         rdf:resource="http://purl.org/dc/dcmitype/StillImage" /><dc:title></dc:title></cc:Work></rdf:RDF></metadata><defs
   id="defs109" /><sodipodi:namedview
   pagecolor="#ffffff"
   bordercolor="#666666"
   borderopacity="1"
   objecttolerance="10"
   gridtolerance="10"
   guidetolerance="10"
   inkscape:pageopacity="0"
   inkscape:pageshadow="2"
   inkscape:window-width="1920"
   inkscape:window-height="984"
   id="namedview107"
   showgrid="false"
   inkscape:zoom="0.98592024"
   inkscape:cx="313.45923"
   inkscape:cy="243.20939"
   inkscape:window-x="0"
   inkscape:window-y="24"
   inkscape:window-maximized="1"
   inkscape:current-layer="Capa_1" />
<g
   fill="white"
   id="g104"
   style="fill:#ffffff"
   transform="translate(-51.237989,-108.99948)">
	<path
   d="m 361.04,367.06 c 0,9.16 -2.23,16.31 -6.66,21.45 -4.44,5.13 -9.86,8.67 -16.24,10.62 -6.39,1.94 -13.33,2.5 -20.82,1.67 -7.5,-0.83 -14.44,-2.5 -20.82,-5 v -37.9 c 3.6,0 6.94,-0.56 9.99,-1.67 2.5,-0.83 4.72,-2.15 6.66,-3.96 1.94,-1.81 2.92,-4.37 2.92,-7.7 V 226.35 H 296.5 v -37.9 h 64.55 z m 0,-245.37 v 37.06 h -64.55 v -37.06 z"
   id="path2"
   style="fill:#ffffff" />
	<path
   d="m 441.23,399.87 c -7.5,0.83 -14.51,0.55 -21.03,-0.83 -6.53,-1.39 -12.08,-4.09 -16.66,-8.12 -4.58,-4.02 -6.87,-9.92 -6.87,-17.7 V 300.13 255.1 h 44.97 v 90.64 z m 0.42,-173.64 h -44.97 v -37.77 h 44.97 z"
   id="path4"
   style="fill:#ffffff" />
	<path
   d="m 522.46,121.69 v 66.67 h 39.09 v 37.9 h -39.09 v 119.01 c 0,3.61 1.04,6.25 3.12,7.91 2.08,1.67 4.37,2.92 6.87,3.75 3.05,0.83 6.38,1.11 9.99,0.83 v 39.19 c -5.87,2.5 -12.58,3.88 -20.12,4.16 -7.55,0.27 -14.67,-0.62 -21.37,-2.71 -6.7,-2.08 -12.36,-5.55 -16.97,-10.41 -4.61,-4.85 -6.92,-11.45 -6.92,-19.78 V 121.69 Z"
   id="path6"
   style="fill:#ffffff" />
	<g
   id="g10"
   style="fill:#ffffff">
		<path
   d="m 630.2,161.72 c 0,0 72.85,-19.06 126.49,25.44 0,0 -6.8,-75.55 -126.49,-66.63 z"
   id="path8"
   style="fill:#ffffff" />
	</g>
	<g
   id="g18"
   style="fill:#ffffff">
		<path
   d="m 266.04,248.59 c -5.56,-13.18 -13.19,-24.57 -22.9,-34.15 -9.72,-9.58 -21.1,-17 -34.15,-22.28 -13.05,-5.27 -26.93,-7.91 -41.64,-7.91 -16.66,0 -31.58,2.92 -44.77,8.75 -13.19,5.83 -24.36,13.74 -33.52,23.74 -9.16,9.99 -16.24,21.52 -21.24,34.56 -5,13.05 -7.5,26.65 -7.5,40.81 0,24.71 5.27,45.05 15.82,61.01 10.55,15.97 23.74,27.84 39.56,35.61 15.82,7.77 32.96,11.45 51.43,11.04 18.46,-0.42 35.61,-4.72 51.43,-12.91 15.82,-8.19 29.08,-20.26 39.77,-36.23 10.68,-15.96 16.03,-35.46 16.03,-58.51 0.01,-15.84 -2.77,-30.34 -8.32,-43.53 z m -51.84,89.12 c -5.14,6.25 -11.6,11.24 -19.36,14.99 -7.77,3.75 -16.94,5.62 -27.48,5.62 -9.99,0 -18.81,-1.87 -26.44,-5.62 -7.64,-3.75 -14.02,-8.75 -19.16,-14.99 -5.14,-6.25 -9.03,-13.25 -11.66,-21.03 -2.64,-7.77 -3.96,-15.82 -3.96,-24.15 0,-8.6 1.25,-17 3.75,-25.19 2.5,-8.19 6.25,-15.41 11.24,-21.65 5,-6.25 11.38,-11.24 19.16,-14.99 7.77,-3.75 16.79,-5.62 27.07,-5.62 9.99,0 18.88,1.87 26.65,5.62 7.77,3.75 14.22,8.75 19.36,14.99 5.13,6.25 9.09,13.4 11.87,21.45 0.7,2.03 1.31,4.07 1.83,6.14 -5.1,-6.02 -16.48,-15.12 -35.62,-8.62 1.24,1.98 1.98,4.31 1.98,6.82 0,7.08 -5.74,12.83 -12.83,12.83 -2.35,0 -4.54,-0.64 -6.43,-1.74 -8.81,24.55 4.07,63.12 45.47,47.41 -1.62,2.69 -3.43,5.27 -5.44,7.73 z"
   id="path12"
   style="fill:#ffffff" />
		<path
   d="m 772.28,248.59 c -5.56,-13.18 -13.19,-24.57 -22.9,-34.15 -9.72,-9.58 -21.1,-17 -34.15,-22.28 -13.05,-5.27 -26.93,-7.91 -41.64,-7.91 -16.66,0 -31.58,2.92 -44.77,8.75 -13.19,5.83 -24.36,13.74 -33.52,23.74 -9.16,9.99 -16.24,21.52 -21.24,34.56 -5,13.05 -7.5,26.65 -7.5,40.81 0,24.71 5.27,45.05 15.82,61.01 10.55,15.97 23.74,27.84 39.56,35.61 15.82,7.77 32.96,11.45 51.43,11.04 18.46,-0.42 35.61,-4.72 51.43,-12.91 15.82,-8.19 29.08,-20.26 39.77,-36.23 10.68,-15.96 16.03,-35.46 16.03,-58.51 0,-15.84 -2.77,-30.34 -8.32,-43.53 z m -51.85,89.12 c -5.14,6.25 -11.6,11.24 -19.36,14.99 -7.77,3.75 -16.94,5.62 -27.48,5.62 -9.99,0 -18.81,-1.87 -26.44,-5.62 -7.64,-3.75 -14.02,-8.75 -19.16,-14.99 -5.14,-6.25 -9.03,-13.25 -11.66,-21.03 -2.64,-7.77 -3.96,-15.82 -3.96,-24.15 0,-8.6 1.25,-17 3.75,-25.19 2.5,-8.19 6.25,-15.41 11.24,-21.65 5,-6.25 11.38,-11.24 19.16,-14.99 7.77,-3.75 16.79,-5.62 27.07,-5.62 9.99,0 18.88,1.87 26.65,5.62 7.77,3.75 14.22,8.75 19.36,14.99 5.13,6.25 9.09,13.4 11.87,21.45 0.7,2.03 1.31,4.07 1.83,6.14 -5.1,-6.02 -16.48,-15.12 -35.62,-8.62 1.24,1.98 1.98,4.31 1.98,6.82 0,7.08 -5.74,12.83 -12.83,12.83 -2.35,0 -4.54,-0.64 -6.43,-1.74 -8.81,24.55 4.07,63.12 45.47,47.41 -1.62,2.69 -3.42,5.27 -5.44,7.73 z"
   id="path14"
   style="fill:#ffffff" />
		<path
   d="m 124.38,161.72 c 0,0 72.85,-19.06 126.49,25.44 0,0 -6.8,-75.55 -126.49,-66.63 0,0 0,41.19 0,41.19 z"
   id="path16"
   style="fill:#ffffff" />
	</g>
	
</g>
</svg>
